<?xml version="1.0" standalone="no"?>
<!DOCTYPE svg PUBLIC "-//W3C//DTD SVG 20010904//EN"
 "http://www.w3.org/TR/2001/REC-SVG-20010904/DTD/svg10.dtd">
<svg version="1.0" xmlns="http://www.w3.org/2000/svg"
 width="665.000000pt" height="1439.000000pt" viewBox="0 0 665.000000 1439.000000"
 preserveAspectRatio="xMidYMid meet">

<g transform="translate(0.000000,1439.000000) scale(0.100000,-0.100000)"
fill="#000000" stroke="none">
<path d="M3106 13825 c-11 -8 -27 -15 -35 -15 -9 0 -29 -7 -45 -15 -15 -8 -36
-15 -45 -15 -22 0 -124 -53 -128 -66 -6 -18 25 -25 41 -9 8 8 24 15 36 15 11
0 23 7 26 15 4 9 19 15 39 15 18 0 38 7 45 15 9 10 32 15 77 15 47 0 65 4 69
15 4 9 19 15 39 15 18 0 38 -7 45 -15 9 -11 33 -15 92 -15 61 0 80 -3 84 -15
4 -8 15 -15 26 -15 11 0 26 -7 34 -15 9 -8 24 -15 35 -15 10 0 19 -4 19 -10 0
-5 12 -10 27 -10 l26 0 -23 25 c-13 14 -31 25 -40 25 -9 0 -22 6 -28 13 -7 6
-16 12 -20 12 -4 1 -18 7 -32 15 -14 8 -33 13 -43 11 -11 -1 -26 7 -34 19 -14
20 -21 22 -87 16 -39 -3 -75 -6 -81 -7 -5 -1 -30 1 -55 4 -32 5 -50 2 -64 -8z"/>
<path d="M2782 13667 c-23 -25 -29 -47 -12 -47 13 0 70 50 70 62 0 17 -37 7
-58 -15z"/>
<path d="M3620 13682 c0 -10 93 -102 103 -102 20 0 3 40 -31 73 -34 34 -72 49
-72 29z"/>
<path d="M2711 13577 c-28 -31 -61 -96 -61 -122 0 -12 -7 -30 -15 -41 -16 -22
-20 -90 -5 -99 6 -3 10 0 10 8 0 8 7 20 15 27 10 8 15 30 15 62 0 34 4 50 15
54 8 4 15 16 15 28 1 11 14 32 30 46 31 25 40 60 17 60 -8 0 -23 -11 -36 -23z"/>
<path d="M3730 13551 c0 -12 7 -24 15 -27 10 -4 15 -20 15 -44 0 -24 5 -40 15
-44 12 -4 15 -30 15 -145 l0 -140 25 25 c22 22 25 33 25 100 0 61 -4 81 -20
101 -15 20 -19 34 -14 60 4 21 2 39 -6 48 -7 8 -20 30 -29 47 -19 38 -41 48
-41 19z"/>
<path d="M2620 13133 c0 -16 7 -37 15 -47 24 -32 19 -65 -12 -79 -16 -6 -34
-18 -42 -25 -18 -17 -8 -74 18 -109 14 -17 21 -40 21 -69 0 -51 14 -87 52
-132 20 -23 28 -44 28 -71 0 -33 7 -44 50 -84 44 -41 49 -49 44 -76 -4 -20 -1
-39 10 -56 12 -18 16 -49 16 -125 0 -94 2 -103 25 -128 l25 -27 0 93 c0 52 4
92 10 92 5 0 40 -31 77 -70 37 -38 75 -70 84 -70 8 0 28 -13 44 -30 l29 -30
142 0 143 0 51 50 c27 28 50 55 50 60 0 6 10 10 22 10 12 0 34 12 49 26 15 14
32 23 38 20 7 -5 11 -50 11 -120 0 -89 -3 -116 -15 -126 -8 -7 -15 -27 -15
-45 0 -18 -7 -38 -15 -45 -21 -17 -15 -54 9 -58 23 -5 36 14 36 51 0 15 9 36
19 46 19 19 20 19 47 -10 15 -16 35 -29 44 -29 9 0 29 -13 45 -30 16 -16 36
-30 46 -30 9 0 22 -7 29 -15 7 -8 21 -15 31 -15 11 0 19 -4 19 -10 0 -5 9 -10
19 -10 11 0 26 -7 35 -15 8 -8 28 -15 44 -15 16 0 35 -7 42 -15 7 -8 27 -15
45 -15 18 0 38 -7 45 -15 7 -8 20 -15 30 -15 10 0 23 -7 30 -15 7 -8 20 -15
30 -15 10 0 23 -7 30 -15 7 -8 26 -15 42 -15 16 0 36 -7 44 -15 17 -16 54 -21
54 -6 0 13 -41 37 -76 45 -17 4 -43 20 -58 35 -18 19 -34 27 -47 24 -10 -3
-30 2 -44 11 -13 9 -33 16 -44 16 -22 0 -98 36 -107 51 -3 5 -23 9 -44 9 -21
0 -40 3 -42 8 -1 4 -25 18 -53 31 -27 13 -63 35 -78 48 -16 12 -34 23 -41 23
-7 0 -26 15 -43 33 l-32 32 -3 181 c-2 136 0 184 10 193 6 7 12 34 12 61 0 28
4 50 9 50 5 0 12 13 16 29 3 16 17 37 31 45 14 10 24 26 24 41 0 25 29 89 62
137 10 14 18 39 17 55 0 27 -1 27 -9 6 -11 -28 -30 -30 -30 -4 0 11 -7 26 -15
35 -8 8 -15 24 -15 35 0 29 36 28 61 -1 l18 -23 1 40 c0 22 7 49 15 59 31 41
8 103 -33 89 -21 -8 -39 15 -46 58 l-7 41 -19 -25 c-13 -17 -20 -41 -20 -70 0
-27 -6 -49 -15 -57 -8 -7 -15 -20 -15 -30 0 -10 7 -23 15 -30 10 -8 15 -31 15
-70 0 -39 -5 -62 -15 -70 -10 -8 -15 -30 -15 -62 0 -34 -4 -50 -15 -54 -10 -4
-15 -20 -15 -44 0 -24 -5 -40 -15 -44 -11 -4 -15 -22 -15 -69 0 -45 -5 -68
-15 -77 -8 -7 -15 -21 -15 -31 0 -11 -4 -19 -10 -19 -5 0 -10 -10 -10 -21 0
-24 -121 -149 -144 -149 -7 0 -25 -13 -41 -30 -16 -16 -36 -30 -46 -30 -9 0
-22 -7 -29 -15 -9 -11 -34 -15 -100 -15 -66 0 -91 4 -100 15 -7 8 -20 15 -30
15 -10 0 -23 7 -30 15 -7 8 -20 15 -29 15 -9 0 -35 18 -56 40 -21 22 -47 40
-57 40 -17 0 -58 33 -58 46 0 3 -13 17 -30 31 -22 18 -30 33 -30 58 0 18 -7
38 -15 45 -8 7 -15 28 -15 46 0 19 -4 34 -10 34 -5 0 -10 22 -10 49 0 31 -5
53 -15 61 -9 8 -15 30 -15 60 0 30 -6 52 -15 60 -11 9 -15 34 -15 100 0 66 -4
91 -15 100 -8 7 -15 28 -15 47 0 21 -6 36 -15 39 -10 4 -15 20 -15 44 0 24 -5
40 -15 44 -8 3 -15 12 -15 21 0 8 -4 15 -10 15 -5 0 -10 -12 -10 -27z m1220
-138 c0 -3 -9 -14 -19 -24 -24 -24 -37 -14 -14 11 15 17 33 24 33 13z m-1200
-30 c0 -8 7 -15 15 -15 16 0 20 -15 7 -24 -9 -6 -42 29 -42 44 0 6 5 10 10 10
6 0 10 -7 10 -15z m30 -131 c0 -31 -23 -28 -28 4 -2 15 2 22 12 22 11 0 16 -9
16 -26z"/>
<path d="M2872 13054 c-33 -32 -39 -63 -14 -72 8 -2 12 7 12 27 0 28 3 31 29
31 16 0 31 6 35 15 7 20 104 20 132 1 11 -8 36 -16 55 -18 29 -3 34 -7 34 -28
0 -30 -35 -40 -55 -15 -17 21 -106 21 -114 0 -3 -8 -15 -15 -27 -15 -11 0 -29
-10 -39 -22 -18 -22 -18 -24 2 -45 19 -20 31 -23 104 -23 79 0 85 2 114 30 17
17 35 28 41 25 5 -4 9 -46 9 -94 0 -84 -1 -88 -30 -111 -25 -22 -29 -32 -30
-77 l0 -53 49 0 c55 0 70 -12 46 -36 -9 -9 -14 -23 -11 -31 3 -8 6 -17 6 -19
0 -2 16 -4 35 -4 40 0 55 21 37 51 -18 28 -14 39 12 39 13 0 27 8 31 18 6 16
7 16 21 -2 14 -19 14 -19 39 4 34 32 32 69 -5 105 -22 21 -30 38 -30 62 0 21
-6 36 -15 39 -8 4 -15 17 -15 30 0 24 1 24 99 24 116 0 131 4 131 36 0 13 5
24 10 24 6 0 10 7 10 15 0 8 -8 15 -19 15 -10 0 -24 7 -31 15 -8 10 -31 15
-70 15 -39 0 -62 -5 -70 -15 -19 -23 -32 -18 -28 13 2 19 9 28 25 30 12 2 27
10 33 18 9 10 33 14 79 14 62 0 70 -3 96 -30 34 -35 41 -37 48 -11 3 12 -4 28
-17 40 -20 19 -35 21 -140 21 l-117 0 -34 -34 -35 -33 0 -115 c0 -91 3 -118
15 -128 8 -7 15 -20 15 -28 0 -9 14 -31 32 -49 l32 -33 -25 -1 c-41 -1 -63 -7
-67 -18 -5 -14 -49 -14 -57 -1 -3 6 -18 10 -33 10 -15 0 -34 4 -42 10 -12 7
-8 14 18 39 29 28 32 37 32 90 0 33 5 63 10 66 6 3 10 29 10 56 0 40 -5 54
-25 73 -14 13 -25 30 -25 37 -1 8 -9 24 -19 37 -18 21 -26 22 -143 21 l-123
-1 -33 -34z m598 -99 c0 -26 -14 -33 -25 -15 -9 14 1 40 15 40 5 0 10 -11 10
-25z m-402 -17 c-7 -20 -48 -23 -48 -4 0 11 9 16 26 16 16 0 24 -5 22 -12z
m286 -9 c-3 -5 -10 -7 -15 -3 -5 3 -7 10 -3 15 3 5 10 7 15 3 5 -3 7 -10 3
-15z"/>
<path d="M3152 12475 c-7 -8 -28 -15 -47 -15 -28 0 -35 -4 -35 -19 0 -27 17
-35 36 -17 13 13 44 16 175 16 99 0 159 4 159 10 0 6 -8 10 -19 10 -10 0 -24
7 -31 15 -15 18 -101 20 -118 3 -9 -9 -15 -9 -24 0 -17 17 -80 14 -96 -3z"/>
<path d="M3167 12403 c-14 -13 -6 -23 17 -23 13 0 26 -7 30 -15 9 -24 69 -19
94 8 12 13 19 27 15 30 -8 9 -148 9 -156 0z"/>
<path d="M2846 12026 c-3 -14 -11 -26 -16 -26 -6 0 -10 -10 -10 -21 0 -21 -89
-119 -107 -119 -5 0 -48 -20 -96 -45 -48 -25 -96 -45 -107 -45 -21 0 -80 -31
-80 -42 0 -14 57 -8 70 7 7 8 27 15 45 15 18 0 38 7 45 15 7 8 20 15 30 15 10
0 23 7 30 15 7 8 21 15 31 15 11 0 19 5 19 10 0 6 9 10 20 10 11 0 46 27 78
60 57 58 72 64 72 30 0 -20 43 -63 53 -53 12 11 8 40 -8 53 -8 7 -15 27 -15
44 -1 17 -11 44 -24 59 l-23 29 -7 -26z"/>
<path d="M3880 11706 c0 -9 5 -16 11 -16 6 0 9 -12 7 -27 -3 -27 -6 -28 -63
-31 -46 -2 -62 1 -71 13 -18 24 -58 15 -62 -12 -2 -13 0 -23 5 -24 4 0 23 -2
42 -3 19 -2 37 -8 39 -14 6 -18 100 -15 118 3 9 8 24 15 35 15 23 0 27 45 5
53 -8 3 -16 16 -18 29 -4 27 -48 40 -48 14z"/>
<path d="M2330 11702 c0 -4 -26 -19 -59 -35 -32 -15 -66 -36 -76 -47 -11 -12
-31 -20 -52 -20 -21 0 -36 -6 -39 -15 -4 -9 -19 -15 -36 -15 -16 0 -44 -11
-61 -24 -18 -13 -51 -34 -74 -46 -24 -13 -43 -27 -43 -32 0 -15 58 -8 64 7 3
8 14 15 24 15 10 0 32 13 48 30 20 21 39 30 62 30 20 0 35 6 38 15 4 10 20 15
44 15 29 0 43 6 58 25 11 14 27 25 35 25 9 0 22 6 29 13 7 8 26 17 41 21 15 3
27 11 27 16 0 6 9 10 19 10 11 0 23 5 26 10 4 6 -10 10 -34 10 -23 0 -41 -3
-41 -8z"/>
<path d="M3360 11636 c0 -13 -6 -26 -14 -29 -8 -3 -16 -22 -18 -44 l-3 -38
-62 -3 c-52 -2 -66 1 -83 18 -11 11 -20 27 -20 35 0 17 -35 55 -50 55 -16 0
-12 -47 5 -54 8 -3 15 -16 15 -30 0 -13 7 -26 15 -30 8 -3 15 -14 15 -24 0
-28 37 -59 52 -44 7 7 33 12 58 12 36 0 52 5 68 23 12 13 22 30 22 39 0 9 7
21 15 28 8 7 15 27 15 46 0 18 5 36 10 39 18 11 10 25 -15 25 -20 0 -25 -5
-25 -24z"/>
<path d="M3452 11627 c-40 -41 -43 -77 -7 -77 14 0 25 4 25 10 0 5 12 13 26
16 34 9 64 38 64 64 0 16 -7 20 -38 20 -30 0 -45 -7 -70 -33z"/>
<path d="M4461 11651 c-21 -14 26 -52 55 -45 12 3 28 -1 37 -10 8 -9 25 -16
37 -16 11 0 23 -7 26 -15 4 -9 19 -15 39 -15 18 0 38 -7 45 -15 8 -9 30 -15
59 -15 44 0 50 -4 109 -63 34 -34 62 -70 62 -79 0 -8 7 -21 15 -28 8 -7 15
-20 15 -30 0 -10 7 -23 15 -30 8 -7 15 -28 15 -47 0 -21 6 -36 15 -39 8 -4 15
-16 15 -29 0 -13 7 -25 15 -29 11 -4 15 -21 15 -66 0 -60 22 -116 41 -104 15
9 10 91 -6 108 -9 9 -15 33 -15 64 0 28 -4 52 -8 54 -4 2 -33 55 -65 118 -44
90 -69 128 -116 174 -51 50 -63 58 -85 52 -19 -5 -28 -2 -32 9 -4 10 -19 15
-44 15 -24 0 -40 5 -44 15 -3 9 -18 15 -39 15 -18 0 -42 7 -53 15 -10 8 -26
15 -35 15 -9 0 -19 7 -23 15 -6 17 -43 20 -65 6z"/>
<path d="M2561 11596 l-34 -33 22 -22 c19 -19 32 -21 124 -21 90 0 105 2 120
20 17 20 24 90 9 90 -4 0 -26 -18 -47 -40 -39 -40 -41 -41 -104 -38 -58 3 -65
5 -66 25 -1 12 4 24 12 27 14 6 18 26 6 25 -5 0 -23 -15 -42 -33z"/>
<path d="M2960 11607 c0 -28 60 -87 89 -87 25 0 29 41 6 60 -8 7 -15 21 -15
31 0 15 -8 19 -40 19 -35 0 -40 -3 -40 -23z"/>
<path d="M4104 11505 c-4 -11 -21 -15 -55 -15 -36 0 -54 -5 -69 -20 -21 -21
-19 -40 5 -40 7 0 21 7 30 16 15 15 17 15 34 0 10 -9 24 -16 33 -16 8 0 25
-11 38 -25 25 -26 40 -32 40 -15 0 6 -7 10 -15 10 -8 0 -15 7 -15 15 0 8 -7
15 -15 15 -23 0 -18 13 15 45 16 15 27 32 24 37 -9 14 -44 9 -50 -7z"/>
<path d="M1812 11440 c-23 -19 -22 -40 2 -40 17 0 58 45 49 53 -11 11 -27 7
-51 -13z"/>
<path d="M2390 11421 c0 -5 5 -13 10 -16 13 -8 13 -55 0 -55 -13 0 -23 -44
-15 -69 8 -25 25 -18 25 10 0 11 7 22 15 25 8 4 15 17 15 30 0 25 14 31 80 36
27 2 35 7 35 23 0 18 -8 20 -82 23 -50 2 -83 -1 -83 -7z"/>
<path d="M3560 11420 c0 -5 7 -10 16 -10 8 0 12 5 9 10 -3 6 -10 10 -16 10 -5
0 -9 -4 -9 -10z"/>
<path d="M2883 11403 c-21 -8 -15 -23 10 -23 13 0 33 -13 47 -30 14 -16 35
-29 48 -30 18 0 22 -6 22 -30 0 -25 -4 -30 -25 -30 -20 0 -25 -5 -25 -23 0
-29 29 -57 58 -57 15 0 22 6 22 19 0 10 7 24 15 31 8 7 15 21 15 31 0 22 -95
119 -116 119 -9 0 -22 7 -30 15 -16 16 -21 17 -41 8z"/>
<path d="M1711 11328 c-12 -24 -25 -50 -30 -58 -5 -8 -30 -59 -56 -112 -25
-54 -50 -100 -56 -103 -5 -4 -9 -21 -9 -39 0 -19 -7 -39 -15 -46 -9 -7 -15
-29 -15 -51 0 -41 18 -53 27 -19 3 11 9 20 14 20 5 0 9 15 9 34 0 18 7 39 15
46 8 7 15 27 15 45 0 18 7 38 15 45 8 7 15 21 15 32 0 10 7 21 15 24 8 4 15
17 15 30 0 14 7 27 15 30 8 4 15 17 15 30 0 13 4 24 10 24 5 0 13 12 16 28 4
15 10 29 15 32 12 9 15 43 3 47 -6 2 -21 -16 -33 -39z"/>
<path d="M3432 11323 l-43 -45 23 -25 c16 -17 31 -23 52 -21 33 3 49 28 18 28
-11 0 -25 6 -31 14 -12 14 -5 46 10 46 5 0 9 7 9 15 0 8 7 15 15 15 8 0 15 5
15 10 0 21 -27 7 -68 -37z"/>
<path d="M3367 11174 c-4 -4 -7 -22 -7 -40 0 -56 93 -131 108 -86 2 7 -6 12
-21 12 -29 0 -35 13 -28 55 5 22 13 31 29 33 13 2 21 9 19 15 -4 13 -89 22
-100 11z"/>
<path d="M3100 11123 c-1 -25 -66 -93 -90 -93 -24 0 -26 -18 -4 -27 10 -4 22
1 29 10 7 10 21 17 32 17 30 0 63 41 63 78 0 22 -5 32 -15 32 -8 0 -15 -8 -15
-17z"/>
<path d="M3012 10957 c-28 -30 -28 -37 3 -37 32 0 32 -15 -1 -45 -25 -23 -25
-45 0 -45 6 0 29 17 50 39 31 32 37 44 34 72 -3 30 -7 34 -33 37 -22 2 -37 -4
-53 -21z"/>
<path d="M3406 10951 c-17 -18 -16 -20 1 -40 25 -30 33 -26 33 19 0 44 -8 49
-34 21z"/>
<path d="M5087 10896 c-10 -25 -8 -169 2 -185 9 -13 9 -12 26 75 8 37 -18 137
-28 110z"/>
<path d="M4450 10880 c0 -6 18 -27 40 -49 22 -21 40 -46 40 -56 0 -9 -25 -42
-55 -71 -30 -30 -55 -63 -55 -75 0 -11 -7 -22 -15 -25 -8 -4 -15 -15 -15 -26
0 -10 -13 -31 -30 -45 -16 -13 -30 -33 -30 -43 0 -10 -7 -23 -15 -30 -8 -7
-15 -21 -15 -31 0 -21 -113 -132 -141 -139 -33 -8 -27 -25 10 -28 29 -3 41 3
82 44 27 27 49 57 49 67 0 10 13 29 29 43 16 14 31 34 33 45 2 11 8 21 13 22
6 1 11 -73 13 -204 2 -175 0 -208 -13 -219 -10 -9 -15 -31 -15 -75 0 -47 -4
-64 -15 -69 -11 -4 -15 -21 -15 -61 0 -30 2 -55 5 -55 3 0 17 12 30 28 19 21
25 39 25 82 0 32 7 63 15 74 8 11 15 39 15 63 0 43 12 57 24 27 3 -9 6 -35 6
-59 0 -25 6 -50 15 -59 8 -8 15 -22 15 -30 0 -9 5 -16 10 -16 16 0 12 80 -5
97 -10 9 -15 30 -13 54 1 22 -3 44 -10 51 -9 9 -12 81 -12 261 l0 250 25 23
c14 13 25 34 25 49 0 21 5 25 30 25 17 0 30 5 30 10 0 6 7 10 15 10 8 0 15 -4
15 -10 0 -11 43 -14 53 -4 9 10 -44 54 -64 54 -11 0 -19 5 -19 10 0 6 -7 10
-15 10 -9 0 -15 9 -15 25 0 14 -9 34 -20 45 -21 21 -60 27 -60 10z"/>
<path d="M1531 10813 c0 -17 -5 -35 -11 -38 -14 -9 -12 -192 2 -232 7 -18 16
-32 21 -30 10 3 15 297 5 297 -3 0 -9 8 -11 18 -3 9 -5 3 -6 -15z"/>
<path d="M3052 10771 c-10 -6 -10 -10 3 -21 25 -21 19 -77 -12 -106 -14 -13
-23 -28 -18 -32 4 -4 10 -1 12 6 3 6 11 12 19 12 8 0 14 6 14 14 0 8 7 16 15
20 8 3 15 15 15 26 0 11 7 23 15 26 24 10 19 51 -7 58 -30 8 -40 7 -56 -3z"/>
<path d="M3419 10766 c-8 -9 3 -76 12 -76 5 0 9 -9 9 -20 0 -22 44 -70 65 -70
28 0 23 17 -21 63 -35 36 -45 52 -42 73 3 25 -11 42 -23 30z"/>
<path d="M2015 10708 c-16 -17 -32 -41 -35 -52 -3 -12 -15 -22 -27 -24 -26 -4
-57 -37 -48 -51 9 -16 30 -13 45 4 19 23 56 18 78 -10 11 -14 25 -25 31 -25 6
0 11 -11 11 -24 0 -13 7 -29 15 -36 8 -7 15 -20 15 -30 0 -10 7 -23 15 -30 8
-7 15 -27 15 -45 0 -20 -6 -35 -15 -39 -13 -4 -15 -35 -15 -186 0 -151 -2
-182 -15 -186 -11 -5 -15 -22 -15 -69 0 -43 -5 -66 -15 -75 -15 -13 -21 -60
-7 -60 13 0 52 66 52 88 0 11 4 23 9 26 11 7 21 -17 21 -50 0 -14 7 -27 16
-31 14 -5 15 -16 10 -69 -6 -54 -4 -64 12 -76 15 -10 19 -24 17 -57 -1 -32 3
-48 18 -61 14 -14 18 -26 13 -45 -5 -18 0 -37 15 -61 11 -19 18 -41 15 -50 -3
-8 4 -28 15 -44 12 -16 19 -35 16 -44 -3 -8 2 -25 13 -38 11 -15 16 -33 13
-49 -3 -16 1 -30 11 -38 12 -10 16 -33 16 -96 0 -61 4 -86 15 -95 8 -7 15 -23
15 -37 0 -20 2 -22 13 -11 8 8 13 41 12 93 l0 80 50 3 c45 3 54 8 107 63 33
33 67 59 78 59 14 0 20 7 20 23 1 12 14 33 30 47 17 13 30 34 30 46 0 12 7 24
15 28 8 3 15 14 15 24 0 11 7 25 15 32 8 7 15 20 15 30 0 10 7 23 15 30 8 7
15 20 15 29 0 10 11 28 25 41 17 16 25 34 25 57 0 21 6 36 15 39 8 4 15 16 15
28 0 12 18 37 45 61 29 25 45 48 45 62 0 13 4 23 8 23 13 0 46 82 44 106 -2
11 4 27 12 34 9 7 16 23 16 36 0 13 4 24 10 24 16 0 79 74 80 93 0 10 7 20 15
23 8 4 15 15 15 25 0 23 36 66 47 56 4 -4 6 -38 5 -77 -2 -67 -1 -70 37 -110
32 -35 40 -39 50 -26 7 8 22 16 34 18 17 2 23 11 25 40 2 20 10 42 18 48 8 7
14 28 14 46 0 29 3 34 24 34 14 0 28 -4 31 -10 10 -16 25 -11 25 9 0 10 7 24
15 31 8 7 15 20 15 30 0 10 -7 23 -15 30 -10 8 -15 30 -15 61 0 46 -2 49 -25
49 -24 0 -25 -3 -25 -55 0 -30 5 -55 10 -55 6 0 10 -7 10 -15 0 -10 -10 -15
-33 -15 -55 0 -75 -31 -79 -120 -3 -63 -6 -75 -21 -78 -11 -2 -30 6 -43 19
-21 20 -24 31 -24 101 l0 78 -36 0 c-45 0 -104 -59 -104 -105 -1 -21 -10 -38
-30 -55 -17 -13 -30 -33 -30 -43 0 -11 -11 -28 -25 -39 -18 -14 -25 -29 -25
-53 0 -18 -7 -38 -15 -45 -8 -7 -15 -20 -15 -30 0 -10 -7 -23 -15 -30 -8 -7
-15 -20 -15 -29 -1 -9 -21 -36 -45 -61 -25 -25 -45 -51 -45 -58 0 -7 -7 -20
-15 -28 -8 -9 -15 -29 -15 -45 0 -19 -9 -38 -25 -53 -14 -13 -25 -30 -25 -38
0 -9 -7 -21 -15 -28 -8 -7 -15 -20 -15 -30 0 -10 -7 -23 -15 -30 -8 -7 -15
-20 -15 -30 0 -10 -7 -23 -15 -30 -8 -7 -15 -20 -15 -29 0 -21 -181 -201 -202
-201 -9 0 -21 -7 -28 -15 -7 -8 -18 -15 -24 -15 -18 0 -56 43 -56 63 0 10 -7
20 -15 23 -8 4 -15 17 -15 30 0 14 -7 27 -15 30 -10 4 -15 21 -15 54 0 30 -6
52 -15 60 -8 7 -15 27 -15 45 0 18 -7 38 -15 45 -9 8 -15 30 -15 60 0 33 -5
50 -15 54 -11 4 -15 22 -15 69 0 45 -5 68 -15 77 -10 8 -15 31 -15 71 0 32 -4
61 -10 64 -5 3 -10 46 -10 95 0 68 -4 92 -16 105 -15 15 -15 17 0 34 12 14 16
40 16 119 0 56 3 102 8 102 17 -1 40 -28 44 -50 2 -17 10 -26 27 -28 13 -2 35
-17 48 -33 26 -30 63 -39 63 -16 0 18 -32 47 -52 47 -21 0 -88 68 -88 89 0 10
-11 28 -25 41 -14 13 -25 32 -25 42 0 10 -7 21 -15 24 -8 4 -15 16 -15 29 0
13 -12 32 -30 45 -16 13 -30 32 -30 42 0 10 -11 29 -25 42 -14 13 -25 28 -25
33 0 5 11 20 25 33 26 25 34 60 13 60 -7 -1 -26 -15 -43 -32z"/>
<path d="M5068 10615 c-10 -13 -18 -31 -18 -39 0 -23 -18 -29 -36 -12 -17 18
-24 19 -41 8 -8 -5 4 -24 38 -60 27 -28 51 -52 54 -52 3 0 5 15 5 33 0 18 7
42 15 53 15 20 21 94 8 94 -5 0 -16 -11 -25 -25z"/>
<path d="M3447 10563 c-4 -3 -7 -24 -7 -46 0 -32 7 -46 35 -73 34 -34 55 -43
55 -24 0 6 -7 10 -15 10 -9 0 -15 9 -15 24 0 14 -4 28 -10 31 -20 12 -10 35
15 35 30 0 32 10 5 33 -21 17 -51 22 -63 10z"/>
<path d="M3022 10538 c-18 -18 -15 -30 13 -57 l25 -23 19 23 c19 24 19 24 -1
47 -24 25 -38 28 -56 10z"/>
<path d="M3990 10536 c-6 -8 -21 -16 -33 -18 -55 -8 -11 -88 49 -88 19 0 34 6
38 15 3 8 15 15 26 15 11 0 29 9 41 21 l21 21 -23 24 c-26 28 -98 34 -119 10z
m50 -37 c0 -5 -4 -9 -10 -9 -5 0 -10 7 -10 16 0 8 5 12 10 9 6 -3 10 -10 10
-16z"/>
<path d="M2407 10500 c-22 -26 -22 -25 17 -65 40 -42 80 -46 114 -11 12 13 22
29 22 36 0 7 -10 23 -22 36 -31 32 -105 34 -131 4z"/>
<path d="M1536 10455 c-10 -28 -7 -100 6 -113 9 -9 8 -18 -2 -38 -14 -25 -16
-77 -4 -96 4 -5 15 0 25 11 14 15 19 35 19 77 0 39 5 63 16 75 15 17 14 20 -8
41 -14 13 -29 31 -35 42 -9 17 -11 17 -17 1z"/>
<path d="M5050 10380 c0 -45 4 -62 15 -66 10 -4 15 -20 15 -50 0 -43 23 -94
41 -94 15 0 10 89 -6 114 -9 13 -14 37 -13 54 2 30 -29 102 -44 102 -5 0 -8
-27 -8 -60z"/>
<path d="M3100 10347 c0 -41 -4 -56 -16 -61 -8 -3 -12 -10 -9 -16 8 -13 25
-13 25 1 0 6 14 22 31 36 24 20 29 32 27 57 -2 25 -8 32 -30 34 -28 3 -28 2
-28 -51z"/>
<path d="M5107 10154 c-14 -14 -8 -132 8 -148 8 -8 15 -19 15 -25 0 -6 6 -11
14 -11 16 0 26 98 14 128 -12 29 -43 63 -51 56z"/>
<path d="M1517 10107 c-9 -23 -17 -56 -17 -72 1 -29 1 -29 15 -10 8 11 19 25
25 32 12 14 14 80 2 87 -4 2 -15 -14 -25 -37z"/>
<path d="M3447 10133 c-17 -17 -5 -60 23 -83 16 -14 29 -35 30 -48 0 -12 7
-25 15 -28 8 -4 15 -16 15 -29 0 -13 7 -25 15 -29 8 -3 15 -16 15 -30 0 -13 7
-26 15 -30 8 -3 15 -14 15 -24 0 -10 11 -29 25 -42 14 -13 25 -31 25 -41 0 -9
7 -22 15 -29 8 -7 15 -20 15 -30 0 -10 7 -23 15 -30 8 -7 15 -21 15 -32 0 -10
7 -21 15 -24 8 -4 15 -16 15 -28 0 -11 14 -34 30 -50 17 -16 30 -35 30 -43 0
-20 238 -253 259 -253 11 0 21 -6 24 -14 3 -8 22 -16 44 -18 l38 -3 3 -178 c2
-159 4 -179 21 -196 17 -17 20 -17 25 -4 3 8 6 115 6 238 0 186 2 225 15 235
8 7 15 27 15 45 0 18 7 38 15 45 8 7 15 25 15 40 0 15 7 33 15 40 9 8 15 30
15 57 0 27 6 51 16 60 11 11 14 28 12 52 -3 25 1 44 14 61 13 19 17 34 12 58
-6 32 -24 45 -24 18 0 -7 -7 -19 -15 -26 -9 -8 -15 -30 -15 -60 0 -33 -5 -50
-15 -54 -9 -3 -15 -18 -15 -40 0 -19 -4 -38 -10 -41 -5 -3 -10 -26 -10 -50 0
-25 -6 -50 -15 -59 -8 -8 -15 -31 -15 -51 0 -22 -6 -38 -15 -41 -9 -4 -15 -19
-15 -38 0 -55 -61 -96 -90 -61 -7 8 -20 15 -29 15 -20 0 -251 231 -251 251 0
8 -13 28 -30 44 -16 16 -30 36 -30 46 0 9 -7 22 -15 29 -8 7 -15 20 -15 30 0
10 -7 23 -15 30 -8 7 -15 20 -15 30 0 10 -7 23 -15 30 -8 7 -15 19 -15 27 0 8
-11 24 -23 36 -13 12 -27 34 -31 50 -3 15 -11 27 -16 27 -6 0 -10 8 -10 19 0
10 -7 24 -15 31 -8 7 -15 27 -15 44 0 23 -9 41 -30 61 -16 16 -30 36 -30 45 0
9 -8 24 -18 33 -20 19 -26 20 -35 10z"/>
<path d="M1500 9944 c0 -9 -9 -27 -20 -41 -25 -33 -25 -80 0 -118 22 -33 27
-104 9 -122 -14 -14 10 -75 26 -70 15 5 18 78 4 104 -10 19 -10 28 -1 43 7 12
12 58 12 114 0 74 -3 95 -15 100 -9 3 -15 0 -15 -10z"/>
<path d="M4487 9873 c-13 -12 -7 -51 9 -68 12 -12 15 -28 12 -59 -4 -32 0 -48
14 -66 12 -15 17 -32 14 -46 -4 -13 0 -27 9 -34 8 -7 15 -25 15 -39 0 -15 7
-36 15 -47 8 -11 15 -41 15 -70 0 -33 5 -56 15 -64 16 -14 22 -120 6 -120 -17
0 -21 -33 -6 -56 8 -13 15 -34 15 -47 0 -14 7 -30 15 -37 8 -7 15 -21 15 -31
0 -9 7 -24 15 -33 8 -8 15 -21 15 -30 0 -19 33 -85 43 -86 13 0 7 51 -8 66
-10 10 -15 35 -15 74 0 53 -2 59 -22 62 -21 3 -23 9 -26 73 -2 39 -7 74 -13
80 -12 12 -12 45 1 45 17 0 12 126 -5 140 -8 7 -15 27 -15 45 0 18 -7 38 -15
45 -8 7 -15 27 -15 45 0 18 -7 38 -15 45 -8 7 -15 27 -15 45 0 18 -7 38 -15
45 -9 7 -15 29 -15 55 0 41 -27 84 -43 68z"/>
<path d="M5128 9818 c-2 -36 -7 -44 -25 -46 -19 -3 -23 -10 -23 -42 0 -21 5
-42 10 -45 6 -3 10 -28 10 -55 0 -27 -4 -52 -10 -55 -5 -3 -10 -46 -10 -95 0
-65 -4 -92 -15 -104 -8 -8 -15 -28 -15 -44 0 -43 -36 -72 -92 -72 -29 0 -50 6
-58 15 -16 20 -131 17 -138 -2 -2 -8 6 -13 22 -13 15 0 29 -7 32 -15 5 -12 27
-15 113 -15 l107 0 39 40 c21 22 47 40 56 40 9 0 22 6 29 14 6 8 21 16 32 18
12 2 23 9 26 16 5 16 -70 16 -86 0 -8 -8 -15 -8 -21 -2 -11 11 -2 74 10 74 5
0 9 56 9 124 0 124 9 156 30 115 18 -33 29 -10 32 68 3 64 0 74 -21 97 -14 14
-28 26 -32 26 -4 0 -9 -19 -11 -42z"/>
<path d="M2040 9736 c0 -8 -7 -16 -15 -20 -11 -4 -15 -20 -15 -54 0 -32 -5
-54 -15 -62 -9 -8 -15 -30 -15 -59 0 -26 -4 -51 -10 -57 -5 -5 -11 -29 -12
-52 -1 -23 -7 -47 -15 -53 -15 -13 -18 -129 -3 -129 6 0 10 6 10 14 0 7 7 19
15 26 10 9 15 32 15 77 0 47 4 65 15 69 10 4 15 20 15 45 0 22 7 51 16 64 10
15 14 36 11 53 -3 17 2 38 13 57 12 20 16 41 13 63 -5 31 -23 46 -23 18z"/>
<path d="M5160 9595 c0 -31 5 -47 15 -51 10 -4 15 -20 15 -44 0 -24 5 -40 15
-44 8 -3 15 -14 15 -24 0 -11 7 -25 15 -32 8 -7 15 -20 15 -30 0 -10 7 -23 15
-30 8 -7 15 -20 15 -29 0 -9 7 -25 15 -35 8 -10 12 -23 9 -28 -3 -4 2 -11 10
-14 11 -4 16 -19 16 -45 0 -26 5 -42 15 -45 10 -4 15 -21 15 -53 1 -31 7 -54
21 -70 23 -29 25 -28 32 26 3 29 1 46 -9 54 -8 6 -14 24 -14 38 0 15 -7 36
-15 47 -8 10 -15 33 -15 50 0 17 -7 37 -15 44 -8 7 -15 18 -15 26 0 7 -13 29
-30 47 -19 23 -30 46 -30 65 0 17 -4 34 -10 37 -5 3 -10 14 -10 24 0 10 -7 24
-15 31 -8 7 -15 28 -15 46 0 22 -6 38 -19 46 -10 6 -17 18 -14 25 3 7 -2 13
-11 13 -12 0 -16 -10 -16 -45z"/>
<path d="M1500 9566 c0 -7 -7 -19 -16 -27 -12 -10 -14 -23 -9 -59 6 -40 2 -56
-25 -111 -18 -35 -36 -71 -41 -79 -5 -8 -13 -25 -18 -37 -6 -11 -15 -24 -20
-28 -6 -3 -11 -24 -11 -46 0 -21 -4 -39 -8 -39 -10 0 -42 -71 -42 -92 0 -8 -9
-27 -20 -41 -16 -20 -19 -34 -14 -64 5 -31 2 -42 -15 -57 -17 -15 -20 -26 -15
-58 6 -32 3 -43 -16 -63 -18 -20 -21 -30 -15 -64 4 -23 9 -41 11 -41 2 0 13 9
24 20 15 15 20 33 20 79 0 40 5 63 15 71 9 8 15 30 15 57 0 26 6 51 15 59 8 9
15 31 15 50 0 19 5 34 10 34 6 0 10 18 10 39 0 25 5 41 15 45 8 3 15 16 15 30
0 13 7 26 15 30 10 3 15 19 15 46 0 29 4 40 15 40 9 0 15 9 15 24 0 13 7 26
15 30 8 3 15 16 15 30 0 13 7 26 15 30 9 3 15 18 15 40 0 38 14 56 24 30 3 -9
6 -33 6 -54 0 -21 5 -42 10 -45 13 -8 13 -115 0 -115 -6 0 -13 7 -16 15 -7 17
-40 20 -49 5 -7 -12 30 -50 49 -50 8 0 35 -20 60 -45 l46 -45 83 0 c74 0 86 3
105 23 12 13 22 26 22 30 0 14 -107 7 -120 -8 -7 -8 -24 -15 -37 -15 -29 0
-73 37 -73 61 0 9 -7 22 -15 29 -11 9 -15 33 -15 87 0 53 -4 79 -15 89 -10 10
-15 35 -15 70 0 34 -6 64 -16 79 -18 27 -34 33 -34 11z"/>
<path d="M1930 9111 c0 -49 -4 -72 -15 -81 -17 -14 -22 -120 -5 -120 6 0 10 6
10 14 0 7 7 19 15 26 8 7 15 25 15 40 0 15 7 33 15 40 9 7 15 29 15 55 0 26
-6 48 -15 55 -8 7 -15 19 -15 26 0 8 -4 14 -10 14 -6 0 -10 -30 -10 -69z"/>
<path d="M4711 8866 c-1 -37 3 -57 14 -66 10 -8 14 -28 13 -56 -1 -29 5 -50
15 -62 10 -11 17 -35 17 -59 0 -26 6 -46 19 -57 11 -10 17 -25 14 -37 -3 -10
0 -25 6 -32 6 -8 13 -31 16 -52 2 -21 9 -41 15 -45 5 -3 12 -19 14 -36 2 -16
15 -51 30 -78 14 -27 26 -55 26 -61 0 -7 7 -18 15 -25 8 -7 15 -27 15 -45 0
-18 7 -38 15 -45 8 -7 15 -19 15 -27 0 -7 7 -25 16 -38 9 -13 14 -30 11 -37
-2 -7 9 -37 24 -67 16 -30 29 -61 29 -70 0 -10 7 -26 15 -37 8 -10 15 -33 15
-50 0 -17 7 -37 15 -44 8 -7 15 -25 15 -41 0 -16 9 -38 20 -49 17 -17 19 -28
14 -74 -5 -41 -3 -59 10 -77 12 -18 16 -47 16 -115 0 -63 4 -94 12 -96 7 -3
14 -32 16 -73 3 -39 10 -74 17 -80 8 -6 15 -51 19 -119 5 -84 11 -114 25 -133
11 -13 17 -32 14 -42 -3 -11 2 -30 11 -43 9 -12 16 -38 16 -58 0 -19 7 -44 15
-54 8 -11 15 -30 15 -42 0 -12 10 -33 21 -48 16 -20 20 -36 16 -62 -5 -30 -1
-38 31 -69 26 -24 46 -35 68 -35 33 0 74 33 55 45 -14 8 -15 175 -1 175 6 0
10 -15 10 -34 0 -18 7 -39 15 -46 8 -7 15 -28 15 -47 0 -20 6 -36 15 -39 8 -3
17 -22 21 -42 4 -21 12 -44 19 -52 6 -8 15 -22 18 -31 3 -9 26 -31 52 -48 56
-38 81 -34 101 15 8 19 18 34 22 34 4 0 27 -18 50 -40 49 -48 78 -51 115 -12
32 34 35 74 7 109 -13 17 -20 41 -20 71 0 30 -5 49 -17 57 -9 7 -14 19 -10 29
9 23 27 20 27 -4 0 -11 7 -28 15 -37 86 -102 79 -97 131 -97 47 -1 49 0 52 27
2 19 -3 33 -14 42 -14 10 -17 24 -15 59 2 31 -2 51 -13 62 -9 8 -16 30 -16 49
0 20 -6 35 -15 39 -9 3 -15 18 -15 40 0 19 -4 38 -10 41 -5 3 -10 14 -10 24 0
10 -7 24 -15 31 -8 7 -15 21 -15 32 0 10 -7 21 -15 24 -12 5 -15 20 -13 68 2
49 -1 66 -15 80 -9 10 -17 24 -17 32 0 8 -12 26 -27 40 -19 18 -24 27 -15 36
16 16 42 2 42 -22 0 -11 7 -23 15 -26 8 -4 15 -14 15 -24 0 -23 99 -119 122
-120 9 0 20 -4 23 -10 11 -17 80 -12 98 8 28 31 22 69 -25 152 -4 8 -20 40
-34 70 -14 30 -35 64 -45 76 -22 24 -59 93 -59 109 0 12 -60 69 -100 93 -14 9
-62 51 -107 94 -49 46 -91 78 -103 78 -32 0 -60 18 -60 39 0 10 -7 24 -15 31
-8 7 -15 27 -15 45 0 20 -6 35 -15 39 -10 3 -15 19 -15 45 0 22 -4 43 -10 46
-5 3 -10 21 -10 39 0 19 -7 39 -15 46 -8 7 -15 27 -15 45 0 18 -7 38 -16 46
-11 9 -15 26 -13 58 3 50 -7 91 -22 91 -5 0 -8 24 -7 53 2 39 -3 60 -17 80
-11 14 -23 27 -27 27 -14 0 -8 -105 7 -124 9 -12 15 -42 15 -72 0 -29 5 -56
10 -59 6 -3 10 -28 10 -54 0 -31 5 -53 15 -61 8 -7 15 -28 15 -47 0 -21 6 -36
15 -39 10 -4 15 -20 15 -44 0 -24 5 -40 15 -44 9 -3 15 -19 15 -41 0 -22 6
-38 15 -41 8 -4 15 -17 15 -30 0 -14 -7 -27 -15 -30 -19 -8 -20 -54 -1 -54 8
0 16 6 19 13 3 9 8 9 22 -3 9 -8 29 -13 44 -12 21 2 43 -14 116 -88 49 -49 97
-90 105 -90 20 0 80 -61 80 -81 0 -8 14 -28 30 -44 17 -16 30 -36 30 -45 0 -9
11 -27 25 -40 31 -29 31 -38 3 -42 -17 -2 -24 -11 -26 -30 -3 -24 0 -28 22
-28 14 0 28 5 31 10 15 24 25 6 25 -47 0 -39 5 -62 17 -75 13 -15 14 -21 4
-27 -24 -16 -67 2 -113 47 -50 48 -59 75 -32 90 20 11 10 32 -15 32 -10 0 -24
7 -31 15 -7 8 -20 15 -29 15 -9 0 -21 4 -26 9 -6 5 -36 11 -67 14 -42 4 -60 2
-69 -9 -20 -24 -82 -18 -109 11 -13 14 -30 25 -38 25 -7 0 -41 27 -75 60 -33
34 -68 59 -76 58 -12 -2 -17 -18 -19 -65 -2 -38 -8 -66 -17 -73 -8 -7 -15 -27
-15 -44 0 -23 -9 -41 -30 -61 -21 -21 -30 -38 -30 -62 0 -35 -16 -44 -75 -40
-22 2 -31 7 -33 24 -2 12 -10 27 -18 33 -9 9 -14 33 -14 75 0 46 -4 64 -15 69
-12 4 -15 38 -17 188 l-3 182 -25 6 c-23 5 -25 11 -28 70 -2 44 -8 67 -18 73
-7 4 -14 21 -14 36 0 15 -11 49 -25 75 -14 26 -25 60 -25 77 0 17 -6 32 -15
35 -8 4 -15 17 -15 30 0 14 -7 27 -15 30 -8 4 -15 16 -15 29 0 13 -7 25 -15
29 -9 3 -15 18 -15 39 0 19 -7 40 -15 47 -8 7 -15 20 -15 30 0 10 -7 23 -15
30 -8 7 -15 20 -15 30 0 10 -7 23 -16 31 -9 7 -14 22 -11 36 3 14 -2 31 -12
40 -8 9 -14 28 -13 44 2 19 -3 32 -16 40 -11 7 -17 19 -15 30 3 10 -3 22 -14
29 -14 9 -17 21 -15 59 3 34 -1 51 -12 60 -11 10 -16 31 -16 71 0 39 -5 62
-15 70 -10 8 -15 30 -15 62 0 34 -4 50 -15 54 -8 4 -15 12 -15 20 0 8 -4 14
-8 14 -5 0 -10 -24 -11 -54z m863 -1609 c29 -30 64 -57 79 -61 15 -3 27 -11
27 -16 0 -6 8 -10 19 -10 10 0 24 -7 31 -15 7 -8 23 -15 36 -15 18 0 23 6 26
32 3 30 4 31 20 15 9 -9 26 -17 37 -17 25 0 27 -17 4 -42 -21 -24 -138 -26
-147 -3 -4 12 -27 15 -116 15 -60 0 -110 3 -110 8 0 4 7 16 15 26 9 12 15 42
15 78 0 32 3 58 6 58 3 0 29 -24 58 -53z m76 -162 c10 -12 36 -15 116 -15 88
0 104 3 113 18 9 16 11 15 32 -7 15 -16 23 -37 24 -67 0 -24 6 -49 13 -56 7
-7 12 -27 12 -45 0 -21 6 -36 15 -39 8 -4 15 -17 15 -30 0 -14 7 -27 15 -30 8
-4 15 -17 15 -30 0 -22 -4 -24 -55 -24 -47 0 -55 3 -55 19 0 10 -6 24 -14 31
-8 6 -16 21 -18 33 -5 34 -66 36 -97 3 l-24 -26 31 -6 c28 -6 32 -11 32 -39 0
-18 7 -38 15 -45 8 -7 15 -23 15 -35 0 -13 7 -25 15 -29 10 -4 15 -20 15 -52
0 -30 6 -54 16 -65 29 -32 11 -50 -48 -47 -53 3 -53 3 -56 38 -2 19 -11 43
-19 52 -23 26 -9 46 33 50 62 5 55 28 -9 28 -53 0 -56 1 -68 33 -7 17 -16 55
-19 82 -5 50 -5 50 -44 53 -28 2 -42 -1 -48 -12 -12 -21 -76 -21 -106 0 -14
10 -38 14 -69 12 -40 -2 -49 -7 -51 -24 -2 -17 4 -23 28 -28 26 -5 31 -10 28
-28 -2 -19 -10 -24 -41 -26 -29 -3 -38 1 -43 15 -3 10 -10 26 -15 36 -7 13 -7
23 1 32 8 10 4 20 -19 44 -25 26 -29 36 -25 68 9 64 9 63 79 63 37 0 65 4 65
10 0 6 40 10 100 10 60 0 100 -4 100 -10 0 -5 8 -10 19 -10 10 0 24 -7 31 -15
16 -19 94 -21 88 -2 -3 6 -14 13 -25 15 -11 2 -31 14 -44 28 -22 23 -27 24
-155 24 -74 0 -135 4 -139 10 -3 5 2 18 12 29 15 16 32 19 109 20 70 1 94 -3
104 -14z m-30 -330 c0 -13 7 -26 16 -29 22 -8 14 -50 -11 -54 -11 -2 -27 -10
-36 -18 -20 -18 -29 -9 -29 28 0 16 -8 40 -17 55 -16 24 -16 26 0 38 9 6 30
10 47 7 23 -3 30 -9 30 -27z m428 -68 c2 -22 10 -41 18 -44 8 -3 14 -15 14
-28 0 -19 -6 -24 -36 -27 -30 -3 -41 1 -60 21 -30 32 -30 59 -2 94 32 40 62
33 66 -16z m-598 -46 c0 -49 -14 -65 -47 -54 -21 7 -15 65 8 90 29 30 39 21
39 -36z m228 -56 c2 -29 9 -53 19 -60 8 -6 13 -20 11 -31 -2 -15 -12 -19 -43
-19 -39 0 -40 1 -43 37 -2 20 -10 42 -18 48 -24 21 -18 50 11 50 14 0 28 7 32
15 11 30 28 8 31 -40z m-214 -31 c20 -7 23 -104 4 -104 -18 0 -48 31 -48 50 0
10 -7 23 -15 30 -13 11 -13 15 -3 21 16 10 40 11 62 3z m644 -43 c5 -73 -3
-80 -48 -36 -58 56 -54 88 10 83 34 -3 35 -5 38 -47z m-177 -58 c2 -18 1 -59
0 -100 -1 -16 -7 -23 -21 -23 -23 0 -60 33 -60 54 0 7 -7 19 -15 26 -18 15
-10 30 16 30 11 0 22 7 25 15 9 21 54 19 55 -2z m-219 -30 c11 -10 18 -30 18
-55 0 -31 -3 -38 -20 -38 -34 0 -60 31 -60 72 0 32 3 38 22 38 12 0 30 -7 40
-17z m78 -8 c0 -16 -6 -25 -15 -25 -15 0 -21 31 -8 43 13 14 23 6 23 -18z"/>
<path d="M5534 7205 c-3 -8 -3 -19 1 -25 11 -18 25 -11 25 15 0 27 -17 34 -26
10z"/>
<path d="M2360 8888 c0 -13 -7 -32 -15 -42 -17 -22 -22 -181 -6 -190 5 -3 16
5 24 18 21 32 29 207 10 225 -10 9 -13 7 -13 -11z"/>
<path d="M1900 8876 c0 -8 -7 -17 -16 -20 -13 -5 -15 -20 -13 -90 3 -71 1 -87
-14 -104 -15 -16 -18 -33 -15 -80 2 -49 0 -62 -14 -71 -13 -8 -18 -24 -18 -60
0 -34 -4 -51 -15 -55 -10 -3 -15 -19 -15 -45 0 -22 -5 -41 -10 -43 -6 -2 -13
-19 -15 -37 -3 -19 -9 -39 -15 -45 -5 -5 -10 -22 -10 -37 0 -15 -7 -34 -15
-43 -8 -8 -15 -23 -15 -34 0 -11 -7 -22 -15 -26 -9 -3 -15 -18 -15 -39 0 -19
-7 -40 -15 -47 -8 -7 -15 -20 -15 -30 0 -10 -7 -23 -15 -30 -8 -7 -15 -27 -15
-45 0 -18 -7 -38 -15 -45 -8 -7 -15 -19 -15 -27 0 -8 -7 -21 -15 -29 -8 -9
-15 -31 -15 -50 0 -19 -4 -34 -10 -34 -5 0 -10 -22 -10 -49 0 -31 -5 -53 -15
-61 -9 -7 -15 -29 -15 -50 0 -54 -8 -70 -36 -70 -21 0 -24 -5 -24 -39 0 -25 5
-41 15 -45 13 -4 15 -34 15 -180 l0 -175 25 25 25 25 0 218 c0 188 2 220 16
232 12 10 14 23 10 51 -5 30 -2 42 14 58 11 11 20 33 20 49 0 16 7 36 15 45 8
8 15 30 15 50 0 19 4 37 9 40 15 9 51 85 51 107 0 10 11 37 25 59 14 22 25 50
25 63 0 13 7 32 15 43 8 10 15 26 15 35 0 9 9 24 19 33 11 10 17 25 14 37 -3
10 2 34 11 53 9 19 16 43 16 54 0 12 4 23 9 26 5 3 12 22 16 42 3 20 13 46 20
58 10 15 11 33 6 63 -7 35 -5 45 10 59 15 14 19 32 19 87 0 53 4 75 17 90 17
18 18 31 10 130 -2 20 -17 23 -17 3z"/>
<path d="M3260 8800 c-14 -16 -35 -29 -47 -30 -31 0 -30 -30 1 -30 13 0 31
-11 42 -25 10 -14 23 -25 28 -25 5 0 19 11 32 25 13 14 32 25 42 25 34 0 33
13 -5 52 -45 46 -61 47 -93 8z"/>
<path d="M5420 8707 c0 -85 2 -94 25 -120 14 -15 27 -27 28 -27 1 0 2 42 2 93
0 76 -3 97 -20 119 -11 15 -23 28 -27 28 -5 0 -8 -42 -8 -93z"/>
<path d="M4190 8706 c0 -21 7 -44 15 -52 10 -10 15 -35 15 -73 0 -40 5 -63 15
-71 31 -26 18 -63 -45 -125 -33 -33 -60 -67 -60 -76 0 -9 -25 -40 -55 -68 -31
-29 -55 -61 -55 -72 0 -11 -7 -22 -15 -25 -22 -9 -22 -252 0 -260 8 -4 22 -1
30 6 12 10 15 39 15 142 l0 129 55 54 c30 29 55 60 55 67 0 16 86 108 101 108
5 0 9 -13 9 -29 0 -16 7 -36 15 -45 8 -8 15 -19 15 -25 0 -21 20 -10 26 14 4
16 0 34 -10 50 -9 13 -16 36 -16 51 0 15 -7 36 -17 46 -11 13 -16 34 -14 73 1
36 -4 63 -14 78 -8 12 -15 38 -15 57 0 26 -7 43 -25 60 l-25 23 0 -37z"/>
<path d="M1220 8630 c0 -6 -8 -23 -19 -38 -14 -20 -17 -38 -14 -69 5 -39 23
-62 23 -29 0 8 7 16 15 20 11 4 15 21 15 66 0 33 -4 60 -10 60 -5 0 -10 -5
-10 -10z"/>
<path d="M2331 8614 c0 -17 -8 -37 -16 -44 -9 -7 -15 -29 -15 -51 0 -28 4 -39
15 -39 8 0 15 6 15 14 0 7 7 19 15 26 16 14 21 90 6 90 -5 0 -12 8 -14 18 -3
9 -5 3 -6 -14z"/>
<path d="M5450 8491 c0 -43 4 -60 15 -65 8 -3 15 -13 15 -23 0 -11 3 -14 10
-7 18 18 15 97 -4 127 -27 41 -36 33 -36 -32z"/>
<path d="M1175 8432 c-15 -20 -20 -41 -19 -80 2 -63 7 -71 34 -47 16 15 20 31
20 87 0 37 -3 68 -7 68 -5 0 -17 -13 -28 -28z"/>
<path d="M2300 8446 c0 -7 -7 -19 -15 -26 -23 -19 -18 -140 6 -140 5 0 9 7 9
16 0 24 54 14 58 -11 5 -26 91 -115 112 -115 20 0 90 -71 90 -92 0 -8 6 -21
13 -27 9 -7 14 -38 15 -93 0 -45 5 -91 10 -102 6 -12 13 -29 16 -38 3 -10 10
-18 16 -18 6 0 10 41 10 109 0 84 -3 111 -15 121 -8 7 -15 27 -15 44 0 24 -11
42 -49 79 -27 26 -56 47 -63 47 -17 0 -108 91 -108 107 0 7 -13 26 -30 43 -23
24 -30 40 -30 70 0 29 -4 40 -15 40 -8 0 -15 -6 -15 -14z"/>
<path d="M1149 8243 c-17 -29 -22 -52 -21 -97 1 -32 3 -61 6 -64 3 -2 14 6 25
19 16 19 20 39 21 102 0 42 -2 77 -4 77 -2 0 -14 -17 -27 -37z"/>
<path d="M4312 8200 c-20 -32 -15 -121 9 -149 11 -13 21 -22 23 -20 4 4 -12
180 -17 185 -1 2 -8 -6 -15 -16z"/>
<path d="M2270 8052 c0 -11 -7 -26 -16 -33 -14 -11 -16 -27 -10 -94 5 -74 4
-81 -15 -93 -19 -12 -21 -21 -17 -92 3 -66 0 -80 -14 -89 -15 -9 -17 -20 -11
-70 4 -48 2 -63 -11 -76 -12 -12 -16 -35 -16 -89 0 -53 -4 -77 -15 -86 -11 -9
-15 -33 -14 -96 1 -64 -3 -87 -15 -99 -21 -22 -22 -151 -1 -179 12 -16 15 -17
15 -4 0 9 7 19 16 22 12 5 15 24 13 113 -1 72 2 108 10 111 7 2 11 37 11 97 0
73 3 94 15 99 12 4 15 24 15 86 0 62 3 82 15 86 11 5 15 22 15 69 0 43 5 66
15 75 11 9 15 33 15 90 0 61 3 79 15 84 13 5 15 22 13 93 -2 58 -7 88 -15 91
-8 2 -13 -5 -13 -16z"/>
<path d="M1116 8033 c-13 -18 -19 -40 -17 -72 2 -51 16 -74 26 -42 3 12 11 21
16 21 5 0 9 27 9 60 0 33 -3 60 -7 60 -5 0 -17 -12 -27 -27z"/>
<path d="M4343 8009 c-19 -19 -17 -148 2 -155 8 -4 15 -12 15 -20 0 -27 18
-14 24 17 10 52 7 96 -8 109 -8 6 -16 23 -18 36 -2 20 -5 23 -15 13z"/>
<path d="M1087 7854 c-25 -30 -27 -39 -21 -82 5 -37 2 -51 -10 -61 -9 -7 -16
-28 -16 -46 0 -18 -7 -38 -15 -45 -8 -7 -15 -27 -15 -45 0 -32 -25 -65 -50
-65 -7 0 -59 -45 -115 -100 -55 -55 -108 -100 -116 -100 -19 0 -59 -41 -59
-61 0 -9 -13 -28 -30 -44 -28 -27 -41 -65 -22 -65 14 0 82 75 82 91 0 19 31
49 51 49 8 0 59 45 114 100 55 55 106 100 115 100 23 1 60 36 60 58 0 11 7 25
15 32 8 7 15 27 15 45 0 18 7 38 15 45 8 7 15 27 15 45 0 20 6 35 15 39 11 4
15 22 15 70 0 36 -4 67 -8 70 -4 2 -20 -11 -35 -30z"/>
<path d="M4360 7750 c0 -45 4 -62 15 -66 11 -4 15 -21 15 -59 0 -38 4 -55 15
-59 11 -4 15 -22 15 -70 0 -54 3 -67 19 -75 10 -6 21 -7 25 -4 12 12 6 99 -9
119 -8 12 -13 40 -12 63 1 28 -4 45 -13 51 -11 7 -14 24 -13 60 2 41 -2 53
-17 63 -11 6 -20 17 -20 24 0 7 -4 13 -10 13 -6 0 -10 -27 -10 -60z"/>
<path d="M2962 7743 c3 -26 7 -28 53 -31 30 -2 53 -9 58 -18 12 -21 332 -21
341 1 4 11 22 15 71 15 49 0 67 4 71 15 4 8 17 15 30 15 15 0 24 6 24 15 0 10
-10 15 -34 15 -18 0 -39 -7 -46 -15 -10 -12 -36 -15 -115 -15 -79 0 -105 -3
-115 -15 -8 -10 -31 -15 -70 -15 -39 0 -62 5 -70 15 -9 10 -32 15 -77 15 -47
0 -65 4 -69 15 -4 8 -17 15 -31 15 -21 0 -24 -4 -21 -27z"/>
<path d="M5397 7703 c-13 -13 -7 -71 8 -77 27 -10 16 -26 -19 -26 -18 0 -39
-6 -46 -14 -6 -8 -28 -16 -48 -18 -32 -3 -37 -7 -40 -30 -3 -29 15 -39 24 -13
4 11 21 15 59 15 36 0 55 4 58 14 3 8 16 16 29 18 19 2 23 10 26 45 4 53 -29
108 -51 86z"/>
<path d="M5480 7640 c0 -36 3 -40 25 -40 20 0 25 5 25 23 0 22 -27 57 -43 57
-4 0 -7 -18 -7 -40z"/>
<path d="M2934 7559 c-4 -7 1 -16 10 -21 9 -5 16 -17 16 -26 0 -10 18 -36 40
-57 22 -21 40 -46 40 -55 0 -9 20 -36 45 -60 25 -24 45 -52 45 -61 0 -9 7 -22
15 -29 8 -7 15 -21 15 -30 0 -10 10 -27 23 -37 13 -10 27 -31 31 -46 10 -40
26 -33 26 11 0 28 -7 45 -25 62 -14 13 -25 31 -25 41 0 9 -7 22 -15 29 -8 7
-15 20 -15 29 0 9 -20 37 -45 61 -25 24 -45 51 -45 60 0 9 -17 32 -38 51 -21
19 -42 47 -46 62 -7 28 -38 38 -52 16z"/>
<path d="M3590 7555 c0 -8 -5 -15 -11 -15 -16 0 -79 -73 -79 -93 0 -10 -7 -20
-15 -23 -8 -4 -15 -16 -15 -29 0 -13 -7 -25 -15 -29 -8 -3 -15 -17 -15 -31 0
-14 -4 -25 -10 -25 -5 0 -10 -8 -10 -19 0 -10 -7 -24 -15 -31 -8 -7 -15 -20
-15 -30 0 -10 -7 -23 -15 -30 -16 -13 -21 -60 -7 -60 14 0 52 45 52 63 0 9 5
19 10 22 6 3 10 14 10 24 0 10 7 24 15 31 8 7 15 21 15 32 0 10 7 21 15 24 8
4 15 17 15 30 0 14 7 27 15 30 8 4 15 16 15 28 1 11 14 32 30 46 17 14 30 34
30 47 0 13 5 23 10 23 6 0 10 7 10 15 0 8 -4 15 -10 15 -5 0 -10 -7 -10 -15z"/>
<path d="M1138 7510 c-22 -25 -28 -28 -38 -15 -7 8 -23 15 -37 15 -21 0 -24
-4 -21 -27 3 -27 5 -28 68 -28 60 0 64 2 70 24 10 42 30 37 30 -7 0 -23 5 -42
13 -44 29 -11 180 -3 184 10 4 9 -12 12 -59 12 -62 0 -64 1 -108 45 -25 24
-52 44 -60 45 -9 0 -27 -13 -42 -30z"/>
<path d="M1157 7273 c-4 -3 -7 -14 -7 -23 0 -9 -18 -34 -40 -55 -22 -21 -40
-46 -40 -55 0 -21 -41 -60 -62 -60 -9 0 -21 -7 -28 -15 -7 -8 -20 -15 -30 -15
-19 0 -34 -25 -24 -41 7 -12 51 -11 59 1 3 6 13 10 22 10 16 0 113 92 113 108
0 13 40 62 51 62 5 0 9 -15 9 -33 0 -24 8 -41 30 -62 16 -15 27 -32 24 -37 -3
-4 -24 -8 -48 -8 -27 0 -61 -10 -90 -25 -26 -14 -54 -25 -62 -25 -8 0 -17 -7
-20 -15 -5 -12 -25 -15 -90 -15 -83 0 -84 0 -84 25 0 17 5 25 18 25 37 0 55
45 32 80 -9 13 -12 13 -21 -2 -7 -13 -23 -18 -58 -18 -31 0 -53 -5 -61 -15 -7
-8 -28 -15 -46 -15 -29 0 -34 -4 -34 -23 0 -13 5 -28 12 -35 9 -9 9 -15 0 -24
-7 -7 -12 -19 -12 -28 0 -23 -72 -90 -97 -90 -12 0 -29 3 -38 6 -14 6 -14 8
-1 23 9 9 16 41 18 76 3 54 5 60 28 65 22 5 25 12 28 58 2 29 0 52 -4 52 -4 0
-23 -12 -42 -26 -32 -25 -34 -29 -28 -71 5 -35 2 -47 -14 -63 -11 -11 -20 -26
-20 -34 0 -7 -7 -19 -15 -26 -18 -15 -11 -48 14 -67 17 -13 96 -14 121 -2 8 4
34 25 57 46 35 33 42 46 45 83 3 41 6 45 31 48 26 3 27 1 27 -37 0 -23 -4 -41
-10 -41 -5 0 -10 -20 -10 -45 0 -25 3 -45 8 -45 10 0 36 39 42 65 7 25 48 33
56 11 8 -22 109 -23 118 -1 3 8 14 15 24 15 11 0 25 7 32 15 7 8 20 15 30 15
10 0 23 7 30 15 7 8 27 15 46 15 18 0 36 5 39 10 3 6 28 10 54 10 38 0 52 -5
71 -25 17 -18 34 -25 62 -25 34 0 38 3 38 25 0 22 -4 25 -33 25 -26 0 -43 10
-85 53 -29 29 -52 61 -52 70 0 10 -7 20 -15 23 -11 5 -15 21 -15 60 0 50 -2
54 -23 54 -13 0 -27 -3 -30 -7z"/>
<path d="M4477 7123 c-7 -12 -7 -370 -1 -388 7 -18 24 -10 24 11 0 9 7 22 15
30 12 12 15 44 15 149 0 105 -3 137 -15 149 -8 8 -15 21 -15 30 0 17 -16 30
-23 19z"/>
<path d="M3277 7043 c-4 -3 -7 -91 -7 -193 0 -155 -3 -190 -15 -200 -10 -9
-15 -31 -15 -72 0 -39 -5 -65 -15 -74 -10 -10 -13 -33 -11 -80 2 -42 -2 -71
-10 -82 -9 -11 -13 -51 -14 -118 0 -78 -4 -104 -15 -114 -13 -11 -15 -57 -15
-302 0 -244 2 -292 15 -304 11 -12 15 -40 15 -113 0 -75 -4 -101 -15 -111 -11
-9 -15 -33 -15 -85 0 -52 -4 -76 -15 -85 -8 -7 -15 -27 -15 -45 0 -18 -7 -38
-15 -45 -8 -7 -15 -19 -15 -28 0 -8 -7 -23 -16 -33 -15 -17 -14 -19 11 -25 52
-13 65 -36 65 -119 0 -58 -4 -77 -15 -81 -12 -5 -15 -29 -15 -129 0 -100 -3
-124 -15 -129 -11 -4 -15 -22 -15 -69 0 -45 -5 -68 -15 -77 -24 -20 -18 -40
15 -51 22 -8 30 -17 30 -34 0 -13 7 -25 15 -29 11 -4 15 -20 15 -54 0 -32 5
-54 15 -62 9 -8 15 -30 15 -57 0 -24 6 -51 14 -58 8 -8 12 -27 10 -46 -2 -18
3 -43 11 -55 8 -13 15 -44 15 -69 0 -31 5 -47 15 -51 13 -5 15 -40 15 -229 0
-186 -2 -225 -15 -235 -12 -10 -15 -44 -15 -187 0 -142 -3 -177 -15 -189 -10
-11 -15 -36 -15 -79 0 -43 5 -68 15 -79 17 -16 20 -36 6 -36 -16 0 -20 -40 -5
-54 11 -11 14 -48 14 -159 0 -116 3 -147 15 -157 8 -7 15 -28 15 -47 0 -21 6
-36 15 -39 10 -4 15 -20 15 -44 0 -24 5 -40 15 -44 19 -7 19 -40 0 -56 -8 -7
-15 -27 -15 -45 0 -18 -7 -38 -16 -45 -9 -8 -14 -25 -12 -44 2 -23 9 -32 28
-36 24 -6 25 -10 28 -88 2 -67 0 -83 -13 -88 -8 -3 -15 -15 -15 -25 0 -10 -9
-28 -21 -40 -20 -20 -22 -20 -40 -3 -10 9 -19 13 -20 8 -1 -5 -2 -25 -4 -44
-2 -19 -8 -36 -14 -38 -8 -3 -11 -68 -11 -210 0 -188 2 -209 20 -232 10 -14
22 -21 27 -17 4 5 10 102 12 215 l3 207 28 31 c15 18 40 58 55 90 15 33 32 62
38 66 6 3 13 34 15 67 4 49 1 62 -12 67 -14 5 -16 27 -16 154 0 119 -3 150
-15 160 -9 8 -15 30 -15 60 0 30 -6 52 -15 60 -12 10 -15 36 -15 115 0 79 -3
105 -15 115 -22 19 -22 415 0 424 12 4 15 29 15 139 0 107 3 137 15 147 12 10
15 46 15 205 0 162 -2 194 -15 199 -12 4 -15 24 -15 86 0 62 -3 82 -15 86 -11
4 -15 21 -15 56 0 31 -6 55 -15 64 -9 9 -15 33 -15 58 0 23 -5 47 -11 53 -6 6
-12 26 -13 44 -1 18 -8 35 -14 37 -7 2 -12 24 -12 52 0 30 -5 52 -15 60 -11 9
-15 33 -15 90 0 57 4 81 15 90 13 11 15 62 15 344 1 275 3 334 15 350 13 17
15 94 15 502 0 311 4 485 10 489 6 3 10 46 10 94 0 66 4 92 15 101 10 8 15 38
17 106 2 52 7 95 13 97 6 1 11 -8 13 -20 2 -12 10 -27 18 -33 11 -10 14 -40
14 -130 0 -92 3 -120 15 -130 13 -11 15 -79 15 -505 0 -429 2 -494 15 -499 10
-4 15 -20 15 -50 0 -24 7 -57 15 -72 19 -37 19 -78 0 -98 -20 -20 -21 -272 -2
-298 8 -10 14 -51 16 -100 1 -46 6 -87 12 -92 5 -6 9 -24 9 -42 0 -17 7 -37
15 -44 10 -9 15 -32 15 -75 0 -43 -5 -66 -15 -75 -10 -9 -15 -32 -15 -76 0
-36 -4 -64 -10 -64 -6 0 -10 -36 -10 -89 0 -66 -4 -93 -15 -105 -13 -12 -15
-62 -15 -321 0 -259 2 -309 15 -321 12 -12 15 -41 15 -129 0 -65 4 -116 10
-120 14 -9 14 -772 -1 -777 -5 -2 -11 -18 -11 -36 -1 -18 -7 -37 -15 -43 -18
-15 -17 -106 1 -124 11 -11 14 -51 15 -172 l0 -157 31 -29 c16 -15 30 -33 30
-39 0 -6 18 -28 40 -49 l40 -39 0 -220 c0 -187 2 -222 15 -226 10 -4 15 -19
15 -43 0 -32 9 -45 70 -106 39 -38 70 -77 70 -85 0 -22 104 -110 129 -110 12
0 21 5 21 10 0 6 -4 10 -10 10 -14 0 -80 69 -80 84 0 8 -7 19 -15 26 -8 7 -15
27 -15 46 0 38 -12 50 -30 29 -11 -13 -18 -9 -53 25 -22 22 -37 43 -33 47 3 3
-1 14 -10 24 -13 15 -15 49 -14 232 1 181 -2 216 -15 227 -10 8 -15 30 -15 61
0 52 -11 67 -30 44 -15 -18 -30 -11 -30 14 0 9 -13 30 -30 46 -16 16 -30 36
-30 46 0 9 -7 22 -15 29 -11 9 -15 32 -15 81 0 67 6 81 38 85 23 4 26 13 9 32
-10 10 -17 24 -17 31 0 7 -7 19 -15 27 -20 21 -20 117 0 134 10 8 15 30 15 62
0 34 4 50 15 54 13 5 15 53 15 344 0 288 -2 339 -15 350 -12 10 -15 39 -15
142 0 102 -3 133 -15 144 -11 12 -15 39 -15 104 0 49 -4 92 -10 95 -13 8 -13
255 0 255 6 0 10 46 10 119 0 93 3 123 15 135 11 10 15 36 15 91 0 58 3 77 15
81 9 4 15 19 15 41 0 27 8 43 31 66 28 26 30 31 15 39 -10 5 -16 22 -16 42 0
19 -7 39 -15 46 -8 7 -15 28 -15 47 0 21 -6 36 -15 39 -11 5 -15 22 -15 69 0
43 -5 66 -15 75 -12 10 -15 42 -15 171 0 94 4 160 10 164 5 3 21 -5 34 -19 13
-14 28 -26 35 -26 22 0 10 45 -19 70 -17 13 -30 32 -30 41 0 9 -7 22 -15 29
-10 8 -15 30 -15 61 0 27 -4 49 -10 49 -6 0 -10 33 -10 79 0 58 -4 82 -15 91
-11 9 -15 33 -15 90 0 57 4 81 15 90 13 11 15 58 15 310 0 252 -2 299 -15 310
-12 10 -15 38 -15 130 0 92 -3 120 -15 130 -11 9 -15 33 -15 90 0 60 -3 79
-15 84 -13 4 -15 40 -15 231 l0 225 -23 0 c-13 0 -27 -3 -30 -7z"/>
<path d="M1465 6950 c-3 -5 -15 -10 -26 -10 -11 0 -22 -7 -25 -15 -5 -12 -24
-15 -84 -15 -57 0 -81 4 -90 15 -8 10 -31 15 -70 15 -39 0 -62 -5 -70 -15 -7
-8 -20 -15 -30 -15 -10 0 -23 -7 -30 -15 -7 -8 -20 -15 -30 -15 -19 0 -50 -30
-50 -48 0 -17 35 -15 50 3 7 8 21 15 32 15 10 0 21 7 24 15 5 12 27 15 114 15
83 0 110 -3 120 -15 16 -20 64 -19 80 0 7 9 23 15 34 13 16 -2 22 -11 24 -41
2 -26 -1 -39 -12 -43 -9 -3 -16 -16 -16 -29 0 -13 -7 -25 -15 -29 -11 -4 -15
-22 -15 -71 0 -36 -4 -66 -10 -66 -5 -1 -17 -1 -25 -1 -39 0 -45 3 -45 27 0
14 4 25 9 25 13 0 21 27 14 45 -4 12 -18 15 -57 13 l-51 -3 -3 -63 c-4 -75
-24 -102 -77 -102 -32 0 -35 -2 -35 -30 0 -25 4 -30 25 -30 22 0 25 -4 25 -38
0 -21 -6 -44 -12 -50 -7 -7 -14 -17 -14 -22 -1 -6 -2 -14 -3 -20 0 -5 -19 -10
-41 -10 -36 0 -40 3 -40 24 0 13 7 26 15 30 11 4 15 22 15 71 0 49 4 67 15 71
11 4 15 21 15 56 0 41 5 55 25 74 40 37 32 45 -42 42 -62 -3 -68 -5 -71 -26
-2 -13 3 -25 12 -28 12 -4 16 -19 16 -53 -1 -61 -25 -91 -74 -91 -25 0 -36 -4
-36 -15 0 -10 10 -15 34 -15 40 0 52 -12 31 -30 -10 -8 -15 -30 -15 -61 l0
-49 -55 0 -55 0 0 36 c0 19 7 42 15 50 9 9 15 34 15 58 0 25 6 49 14 55 10 8
12 24 9 51 -5 34 -1 43 26 70 17 17 31 36 31 41 0 5 -18 9 -39 9 -25 0 -41 5
-45 15 -7 20 -45 19 -53 -1 -3 -8 1 -27 8 -41 11 -21 11 -27 2 -30 -8 -3 -13
-21 -13 -44 0 -37 -1 -39 -32 -39 -18 0 -40 -4 -48 -10 -15 -9 -16 -9 35 -25
19 -6 19 -39 1 -55 -8 -6 -16 -21 -18 -33 -2 -18 -11 -23 -41 -25 -41 -4 -47
-25 -9 -30 26 -4 30 -36 7 -58 -8 -9 -15 -24 -15 -35 0 -10 -7 -19 -15 -19 -8
0 -15 -6 -15 -14 0 -12 15 -14 53 -7 4 0 7 10 7 21 0 11 7 23 15 26 8 4 15 16
15 29 0 13 7 25 15 29 8 3 15 17 15 32 0 16 5 24 13 22 19 -7 21 -40 3 -50
-10 -5 -16 -22 -16 -42 0 -19 -7 -39 -15 -46 -17 -14 -13 -66 7 -107 17 -34
81 -32 112 2 19 21 25 23 30 10 3 -8 16 -15 28 -15 13 0 29 -4 37 -9 9 -6 21
-5 33 2 24 16 23 25 -4 29 -18 2 -24 11 -26 37 -6 59 67 111 84 59 4 -14 1
-25 -10 -33 -19 -14 -22 -59 -3 -53 6 3 18 18 26 34 8 16 18 36 23 44 4 8 12
25 18 38 5 12 14 22 20 22 5 0 10 15 10 34 0 18 6 39 14 46 8 6 16 27 18 46 5
52 23 41 26 -16 2 -38 -1 -52 -12 -56 -27 -10 -20 -69 9 -93 47 -36 115 -3
115 56 0 17 5 35 10 38 6 3 10 19 10 34 0 15 7 36 15 47 8 11 15 42 15 74 0
32 7 63 15 74 8 11 15 40 15 65 0 25 7 59 15 75 9 16 13 37 10 46 -3 9 3 24
15 35 15 13 20 31 20 67 0 45 -11 61 -25 38z m-89 -391 c4 -7 -1 -16 -10 -21
-10 -6 -16 -22 -16 -48 0 -36 -3 -40 -25 -40 -24 0 -25 3 -25 53 0 30 3 57 7
60 11 11 61 8 69 -4z m-48 -173 c3 -27 -29 -76 -50 -76 -4 0 -8 25 -8 56 0 54
0 55 28 52 21 -2 28 -9 30 -32z m-425 -96 c9 -11 17 -28 17 -37 0 -27 -41 -63
-71 -63 -33 0 -48 19 -25 32 10 5 16 22 16 42 0 18 3 36 7 39 12 13 39 7 56
-13z"/>
<path d="M2094 6829 c-12 -14 -19 -40 -22 -82 -3 -52 0 -66 18 -89 12 -16 26
-28 31 -28 5 0 9 49 9 110 0 61 -4 110 -8 110 -5 0 -17 -9 -28 -21z"/>
<path d="M760 6808 c0 -13 -7 -32 -15 -42 -8 -11 -15 -32 -15 -47 0 -15 -6
-34 -13 -41 -30 -32 -49 -73 -52 -116 -2 -26 -7 -67 -11 -92 l-6 -44 23 16
c16 10 25 27 27 49 2 19 8 38 13 44 5 5 9 30 9 56 0 28 6 51 14 59 8 6 16 28
18 48 3 32 7 37 31 40 21 3 27 9 27 28 0 14 -7 27 -15 30 -8 4 -15 12 -15 20
0 8 -4 14 -10 14 -5 0 -10 -10 -10 -22z"/>
<path d="M2113 6533 c-19 -7 -17 -137 1 -155 8 -8 16 -23 18 -34 2 -10 8 -18
13 -17 6 2 11 42 13 89 3 78 1 86 -17 91 -12 3 -17 11 -14 19 5 15 5 15 -14 7z"/>
<path d="M4438 6399 c-15 -8 -18 -25 -18 -103 0 -74 -3 -95 -15 -100 -12 -4
-15 -25 -15 -101 0 -76 -3 -97 -15 -101 -12 -5 -15 -26 -15 -100 0 -75 -3 -96
-15 -100 -12 -5 -15 -26 -15 -99 0 -70 -4 -96 -15 -105 -9 -8 -15 -30 -15 -57
0 -26 -6 -51 -15 -59 -9 -9 -15 -34 -15 -58 0 -24 -6 -48 -13 -54 -7 -6 -12
-25 -11 -41 1 -17 -4 -35 -12 -42 -8 -6 -14 -24 -14 -40 0 -15 -7 -34 -15 -43
-8 -8 -15 -21 -15 -29 0 -8 -7 -20 -15 -27 -10 -8 -15 -31 -15 -69 l0 -56 25
27 c17 18 25 39 25 62 0 34 32 110 51 122 5 3 9 20 9 37 0 18 7 41 15 51 8 11
15 31 15 45 0 14 7 35 15 45 8 11 15 39 15 62 0 25 6 47 15 54 10 8 15 30 15
65 0 36 5 57 16 66 14 11 15 27 10 94 -6 74 -5 84 15 109 19 25 21 35 15 99
-10 104 -9 108 15 124 20 14 21 21 14 89 -6 61 -4 77 10 90 12 12 16 33 14 85
-2 72 -3 75 -31 58z"/>
<path d="M2137 6271 c-13 -63 -8 -168 8 -181 11 -9 15 -35 15 -106 0 -76 3
-95 17 -102 13 -8 15 -20 10 -70 -6 -52 -4 -63 11 -74 10 -7 22 -22 28 -33 6
-15 9 -4 12 44 2 50 0 67 -12 73 -13 7 -16 28 -16 102 0 74 -3 95 -15 100 -12
4 -15 29 -15 131 0 101 -3 125 -14 125 -8 0 -16 6 -18 12 -3 7 -8 -2 -11 -21z"/>
<path d="M2217 5673 c-4 -3 -7 -25 -7 -47 0 -29 6 -47 20 -59 17 -14 20 -24
14 -53 -5 -28 -2 -40 16 -59 16 -17 21 -31 16 -49 -3 -14 -2 -28 4 -31 17 -11
50 -87 50 -117 0 -36 41 -57 52 -27 8 21 1 49 -13 49 -5 0 -9 8 -9 19 0 10 -7
24 -15 31 -8 7 -15 27 -15 45 0 18 -7 38 -15 45 -9 8 -15 30 -15 60 0 33 -5
50 -15 54 -10 4 -15 20 -15 53 -1 56 -32 107 -53 86z"/>
<path d="M2396 4959 c-3 -17 -6 -71 -6 -119 0 -79 2 -88 25 -110 l25 -23 0
122 c0 105 -3 125 -19 142 -18 20 -18 20 -25 -12z"/>
<path d="M4148 4825 c-25 -33 -27 -282 -3 -291 11 -5 15 -22 15 -67 0 -49 4
-65 23 -85 l22 -24 -25 -20 c-23 -18 -23 -21 -7 -33 15 -11 17 -40 17 -327 0
-268 -2 -317 -15 -328 -11 -9 -15 -33 -15 -92 0 -61 -3 -80 -15 -84 -11 -4
-15 -21 -15 -59 0 -38 -4 -55 -15 -59 -9 -3 -15 -18 -15 -39 0 -19 -7 -40 -15
-47 -8 -7 -15 -28 -15 -46 0 -19 -4 -34 -10 -34 -5 0 -10 -22 -10 -49 0 -31
-5 -53 -15 -61 -8 -7 -15 -27 -15 -45 0 -18 -7 -38 -15 -45 -10 -8 -15 -30
-15 -62 0 -34 -4 -50 -15 -54 -10 -4 -15 -21 -15 -54 0 -30 -6 -52 -15 -60
-10 -9 -15 -32 -15 -77 0 -47 -4 -65 -15 -69 -12 -5 -15 -24 -15 -84 0 -57 -4
-81 -15 -90 -10 -8 -15 -31 -15 -72 0 -43 4 -60 15 -64 12 -5 15 -26 15 -104
0 -78 -3 -99 -15 -104 -9 -3 -15 -18 -15 -34 0 -16 7 -35 15 -42 8 -7 15 -20
15 -30 0 -10 7 -23 15 -30 8 -7 15 -20 15 -30 0 -10 7 -23 15 -30 8 -7 15 -20
15 -30 0 -10 7 -23 15 -30 8 -7 15 -20 15 -30 0 -10 7 -23 15 -30 8 -7 15 -20
15 -30 0 -10 7 -23 15 -30 8 -7 15 -21 15 -31 0 -11 5 -19 10 -19 6 0 10 -15
10 -34 0 -19 7 -41 15 -50 8 -8 15 -28 15 -44 0 -16 7 -35 15 -42 10 -8 15
-30 15 -61 0 -51 7 -57 39 -37 23 14 51 4 51 -18 0 -10 8 -26 17 -36 16 -17
15 -20 -4 -46 -23 -30 -36 -32 -42 -5 -4 20 -35 53 -51 53 -5 0 -10 -15 -10
-33 0 -24 8 -41 30 -62 30 -28 30 -29 10 -47 -25 -23 -28 -23 -56 7 -13 14
-33 25 -44 25 -31 0 -24 -54 8 -58 20 -3 22 -9 22 -57 0 -50 2 -54 25 -57 29
-3 37 -21 11 -26 -21 -4 -144 113 -148 142 -2 15 -11 22 -30 24 -45 5 -37 -35
17 -83 46 -40 57 -71 30 -81 -32 -13 -16 -34 26 -34 38 0 40 -2 37 -27 -2 -15
-10 -27 -19 -29 -19 -2 -89 67 -89 88 0 14 -119 138 -133 138 -4 0 -7 -17 -7
-38 0 -41 19 -67 55 -74 35 -6 29 -38 -16 -84 -42 -43 -42 -44 -24 -64 14 -15
31 -20 72 -20 29 0 53 5 53 10 0 6 7 10 15 10 25 0 17 -37 -15 -63 -36 -31
-37 -37 -6 -37 26 0 41 14 65 63 9 17 32 40 51 49 45 23 137 114 144 144 4 14
16 26 31 30 20 5 25 12 25 39 0 19 4 36 9 39 5 3 18 24 30 46 l21 40 -21 40
c-12 22 -25 43 -30 46 -5 3 -9 13 -9 22 0 10 -25 42 -55 72 -30 30 -55 60 -55
66 0 7 -7 20 -16 28 -8 9 -18 41 -21 71 -3 30 -10 55 -14 55 -5 0 -9 11 -9 25
0 14 -7 28 -16 32 -9 3 -14 13 -11 25 4 12 -3 24 -19 35 -26 17 -74 103 -74
134 0 10 -12 41 -27 69 -24 45 -25 52 -14 87 10 30 10 54 1 113 -17 111 -13
272 7 287 13 10 15 25 10 80 -4 58 -2 72 14 92 11 13 19 39 19 60 0 20 7 47
16 59 11 16 15 38 12 70 -3 35 1 51 15 65 13 13 17 26 12 48 -5 20 -1 38 9 54
9 13 16 36 16 51 0 15 7 35 16 45 9 10 17 31 19 46 1 15 7 41 13 56 7 16 10
32 7 36 -2 5 2 17 10 27 8 10 15 28 15 39 0 11 7 34 16 50 10 18 16 51 15 82
-1 34 4 56 14 66 11 12 15 38 15 100 0 63 4 88 15 97 13 10 15 53 15 272 0
217 -2 262 -15 274 -12 12 -15 42 -15 127 -1 82 -5 117 -15 131 -10 14 -14 46
-14 115 1 185 -1 231 -8 231 -5 0 -16 -11 -25 -25z m92 -3650 c0 -11 -40 -48
-46 -43 -3 4 3 15 13 26 18 20 33 27 33 17z m-340 -235 c0 -5 -4 -10 -10 -10
-5 0 -10 5 -10 10 0 6 5 10 10 10 6 0 10 -4 10 -10z"/>
<path d="M2589 4813 c-5 -46 -3 -66 8 -75 8 -6 13 -35 13 -75 0 -47 4 -65 15
-69 8 -4 15 -17 15 -30 0 -30 21 -31 46 -3 17 19 18 21 1 30 -12 7 -17 23 -17
57 0 27 -5 53 -12 60 -9 9 -9 15 0 24 7 7 12 22 12 35 0 18 -6 23 -25 23 -14
0 -28 7 -31 15 -6 16 -23 21 -25 8z"/>
<path d="M3977 4799 c-15 -17 -17 -35 -15 -127 2 -63 7 -107 13 -107 6 0 11
10 13 22 2 12 10 27 18 33 10 9 14 35 14 91 0 46 4 79 10 79 6 0 10 7 10 15 0
21 -41 17 -63 -6z"/>
<path d="M3560 4766 c0 -13 7 -29 15 -36 8 -7 15 -26 15 -42 0 -16 7 -36 15
-44 9 -9 15 -34 15 -59 0 -24 5 -47 10 -50 6 -3 10 -14 10 -24 0 -10 7 -24 15
-31 8 -7 15 -20 15 -29 0 -16 39 -61 52 -61 4 0 8 12 10 28 3 23 8 28 43 32
75 9 44 64 -34 58 -38 -3 -71 29 -71 70 0 18 -7 40 -15 48 -8 9 -15 28 -15 44
0 16 -4 32 -10 35 -5 3 -10 17 -10 30 0 39 -11 55 -36 55 -19 0 -24 -5 -24
-24z"/>
<path d="M2990 4665 c0 -49 -4 -67 -15 -71 -9 -4 -15 -19 -15 -40 0 -48 -28
-72 -86 -76 -67 -4 -71 -28 -5 -28 35 0 53 -5 59 -16 5 -9 18 -14 33 -12 21 3
24 9 27 53 2 27 9 57 16 65 6 8 11 35 10 60 -1 25 4 55 12 67 23 36 18 63 -11
63 -24 0 -25 -2 -25 -65z"/>
<path d="M2413 4539 c-22 -26 -23 -36 -23 -181 0 -84 3 -170 6 -190 l7 -37 18
24 c18 22 19 40 17 217 l-3 194 -22 -27z"/>
<path d="M3820 4082 c0 -11 -7 -25 -15 -32 -12 -10 -15 -38 -15 -130 0 -92 -3
-120 -15 -130 -12 -10 -15 -42 -15 -173 0 -141 -2 -161 -17 -173 -17 -12 -17
-14 2 -28 19 -15 19 -17 3 -27 -16 -9 -18 -29 -18 -188 0 -152 -2 -180 -15
-185 -13 -5 -15 -20 -13 -73 3 -65 4 -68 28 -68 l25 0 3 122 c2 92 6 124 17
133 12 10 15 48 15 205 0 162 2 194 15 199 12 4 15 33 15 169 0 136 3 167 15
177 13 10 15 33 13 113 -2 69 -7 102 -15 105 -8 2 -13 -5 -13 -16z"/>
<path d="M2822 4068 c-16 -16 -15 -33 3 -48 11 -9 15 -33 15 -85 0 -52 4 -76
15 -85 11 -9 15 -35 15 -105 0 -73 3 -94 15 -99 12 -4 15 -24 15 -86 0 -62 3
-82 15 -86 12 -5 15 -26 15 -99 0 -70 4 -96 15 -105 11 -9 15 -34 15 -100 0
-66 4 -91 15 -100 11 -9 15 -34 15 -100 0 -71 3 -90 18 -103 10 -10 22 -17 25
-17 14 0 7 127 -7 140 -11 9 -15 35 -14 103 0 59 -3 92 -11 95 -7 2 -11 37
-11 98 0 75 -3 96 -15 100 -12 5 -15 24 -15 84 0 57 -4 81 -15 90 -11 9 -15
34 -15 100 0 66 -4 91 -15 100 -11 9 -15 34 -15 100 0 66 -4 91 -15 100 -9 8
-15 30 -15 60 0 34 -4 50 -16 54 -20 8 -18 8 -32 -6z"/>
<path d="M2390 3867 c0 -99 3 -127 15 -137 10 -9 15 -31 15 -72 0 -39 5 -64
15 -74 10 -10 15 -35 15 -70 0 -36 5 -61 15 -70 8 -9 15 -26 15 -39 0 -12 7
-36 15 -51 8 -16 15 -38 15 -49 0 -11 7 -29 15 -39 8 -11 15 -32 15 -47 0 -15
5 -31 10 -34 6 -3 10 -14 10 -24 0 -10 7 -24 15 -31 8 -7 15 -28 15 -46 0 -19
4 -34 9 -34 5 0 12 -13 16 -30 4 -16 11 -30 15 -30 5 0 12 -17 15 -37 7 -39
11 -51 39 -116 9 -21 16 -47 16 -59 0 -12 7 -29 15 -38 8 -9 16 -30 18 -48 2
-17 10 -38 17 -47 8 -9 14 -29 15 -45 1 -16 7 -36 15 -45 8 -9 12 -37 11 -70
-1 -43 2 -57 16 -66 16 -10 18 -27 15 -187 -3 -151 -6 -179 -20 -190 -16 -12
-16 -15 1 -43 21 -38 22 -83 2 -103 -10 -10 -13 -24 -9 -39 3 -14 1 -28 -5
-31 -5 -4 -23 -35 -40 -70 -17 -36 -35 -67 -41 -71 -5 -3 -10 -31 -10 -61 0
-33 -6 -64 -16 -79 -11 -17 -14 -36 -10 -58 6 -30 2 -36 -39 -70 -28 -24 -45
-46 -45 -60 0 -12 -9 -28 -20 -35 -11 -7 -17 -18 -14 -27 4 -8 1 -22 -6 -29
-6 -8 -14 -39 -17 -70 -5 -45 -2 -62 17 -98 13 -24 30 -55 37 -71 8 -15 23
-32 34 -37 10 -6 19 -21 19 -34 0 -17 10 -28 34 -40 19 -9 38 -16 44 -16 5 0
25 -17 45 -39 19 -21 48 -45 63 -53 42 -22 104 -41 112 -34 3 4 -11 23 -31 44
-21 21 -34 41 -31 45 14 14 102 8 108 -8 3 -8 17 -15 31 -15 24 0 25 3 25 55
l0 55 -49 0 c-52 0 -76 16 -47 32 9 5 16 20 16 32 0 13 6 26 14 29 8 3 23 18
32 32 16 24 16 28 1 42 -19 19 -47 10 -47 -15 0 -10 -13 -31 -30 -47 -16 -16
-30 -36 -30 -46 0 -9 -7 -22 -15 -29 -8 -7 -15 -21 -15 -31 0 -25 -12 -24 -38
4 -26 27 -28 45 -7 53 8 4 15 17 15 30 0 14 7 27 15 30 17 7 20 49 5 59 -20
12 -50 -6 -50 -31 0 -13 -4 -24 -9 -24 -5 0 -11 -12 -13 -27 -2 -22 -8 -28
-28 -28 -31 0 -39 29 -15 55 11 12 15 32 13 61 -3 46 -28 69 -28 26 0 -14 -7
-27 -15 -31 -8 -3 -15 -17 -15 -31 0 -31 -10 -32 -38 -2 -29 31 -28 43 9 74
37 32 37 68 -1 68 -17 0 -26 -6 -28 -20 -5 -25 -32 -57 -45 -52 -14 4 -12 100
2 105 6 2 11 11 11 21 0 26 21 41 57 41 l33 0 0 64 c0 44 5 67 15 76 10 9 15
32 15 75 0 47 4 64 15 69 10 4 15 19 15 49 0 28 9 61 25 91 14 26 25 53 25 60
0 8 7 19 15 26 8 7 15 28 15 47 0 21 6 36 15 39 8 4 15 16 15 29 0 12 -7 28
-15 35 -19 16 -19 80 0 106 21 28 22 252 0 260 -11 5 -15 24 -15 83 -1 51 -5
82 -15 95 -8 11 -15 32 -15 47 0 15 -4 31 -10 34 -5 3 -10 21 -10 39 0 19 -7
39 -15 46 -8 7 -15 28 -15 47 0 21 -6 36 -15 39 -9 4 -15 19 -15 39 0 18 -7
38 -15 45 -8 7 -15 27 -15 45 0 18 -7 38 -15 45 -8 7 -15 21 -15 32 0 10 -7
21 -15 24 -10 4 -15 20 -15 44 0 24 -5 40 -15 44 -10 3 -15 19 -15 46 0 22 -4
40 -10 40 -5 0 -10 8 -10 19 0 10 -7 24 -15 31 -8 7 -15 28 -15 47 0 21 -6 36
-15 39 -10 4 -15 20 -15 45 0 26 -5 42 -15 45 -10 4 -15 21 -15 54 0 30 -6 52
-15 60 -10 9 -15 32 -15 75 0 43 -5 66 -15 75 -12 10 -15 40 -15 144 -1 128
-1 131 -25 149 l-25 18 0 -124z m260 -2819 c21 -26 17 -38 -11 -38 -22 0 -34
22 -25 45 7 20 15 19 36 -7z m100 -108 c0 -5 -4 -10 -10 -10 -5 0 -10 5 -10
10 0 6 5 10 10 10 6 0 10 -4 10 -10z m230 -30 c0 -5 -4 -10 -10 -10 -5 0 -10
5 -10 10 0 6 5 10 10 10 6 0 10 -4 10 -10z m-144 -25 c4 -8 3 -22 0 -32 -6
-14 -9 -14 -26 5 -11 12 -20 26 -20 32 0 16 40 12 46 -5z"/>
<path d="M3213 1141 c-13 -16 -23 -43 -23 -59 0 -19 -10 -36 -30 -52 -16 -14
-29 -35 -30 -48 0 -12 -7 -25 -15 -28 -8 -4 -15 -16 -15 -29 0 -13 -7 -25 -15
-29 -19 -7 -20 -66 -1 -66 20 0 32 20 40 63 4 20 11 37 16 37 4 0 11 12 15 28
3 15 21 38 40 52 48 36 54 50 47 109 l-7 53 -22 -31z"/>
</g>
</svg>
