<?xml version="1.0" standalone="no"?>
<!DOCTYPE svg PUBLIC "-//W3C//DTD SVG 20010904//EN"
 "http://www.w3.org/TR/2001/REC-SVG-20010904/DTD/svg10.dtd">
<svg version="1.0" xmlns="http://www.w3.org/2000/svg"
 width="682.000000pt" height="1501.000000pt" viewBox="0 0 682.000000 1501.000000"
 preserveAspectRatio="xMidYMid meet">

<g transform="translate(0.000000,1501.000000) scale(0.100000,-0.100000)"
fill="#000000" stroke="none">
<path d="M3142 14473 c-25 -2 -45 -10 -49 -19 -3 -8 -18 -14 -33 -14 -31 0
-108 -40 -135 -70 -10 -11 -25 -20 -34 -20 -28 0 -139 -117 -167 -175 -14 -30
-29 -57 -35 -60 -5 -4 -9 -28 -9 -54 0 -26 -7 -56 -15 -67 -15 -20 -21 -94 -7
-94 21 0 52 61 52 103 0 27 6 49 15 57 8 7 15 20 15 30 0 10 6 23 14 30 8 6
13 17 10 24 -3 7 2 19 11 26 8 7 15 19 15 27 0 22 100 123 122 123 11 0 31 14
45 30 14 17 34 30 48 30 12 0 25 7 29 15 3 9 18 15 39 15 19 0 40 7 47 15 10
12 43 15 182 15 141 0 170 -2 174 -15 4 -10 21 -15 53 -15 39 0 52 -5 76 -30
16 -16 36 -30 45 -30 24 0 150 -126 150 -150 0 -11 7 -23 15 -26 10 -4 15 -20
15 -45 0 -26 5 -42 15 -45 10 -4 15 -20 15 -44 0 -24 7 -43 19 -54 18 -17 20
-17 30 2 8 14 5 28 -9 55 -11 21 -20 50 -20 66 0 16 -3 31 -7 33 -5 2 -21 29
-37 61 -28 56 -157 202 -180 202 -6 1 -20 6 -32 12 -11 7 -32 14 -47 17 -14 2
-37 12 -52 22 -22 14 -53 18 -183 20 -87 1 -176 0 -200 -3z"/>
<path d="M3877 13822 c-13 -14 -17 -38 -17 -99 0 -63 -3 -82 -15 -87 -9 -3
-15 -18 -15 -39 0 -19 -7 -40 -15 -47 -8 -7 -15 -20 -15 -30 0 -10 -7 -23 -15
-30 -14 -12 -13 -16 6 -37 13 -12 30 -23 39 -23 21 0 60 -41 60 -63 0 -10 -7
-20 -15 -23 -8 -4 -15 -16 -15 -28 0 -12 -13 -33 -30 -46 -16 -14 -29 -35 -30
-48 0 -12 -7 -25 -15 -28 -8 -4 -15 -17 -15 -30 0 -15 -6 -24 -15 -24 -8 0
-15 9 -15 20 0 11 7 23 15 26 8 4 15 16 15 28 1 23 32 66 49 66 24 0 9 29 -16
32 -22 2 -29 9 -31 31 -4 34 -12 34 -47 -3 -16 -16 -36 -30 -46 -30 -9 0 -22
-7 -29 -15 -9 -10 -32 -15 -75 -15 -43 0 -66 -5 -75 -15 -7 -8 -28 -15 -47
-15 -23 0 -33 -4 -31 -12 7 -20 151 -23 168 -3 7 8 27 15 45 15 18 0 38 7 45
15 24 29 30 15 30 -69 0 -62 -4 -87 -15 -96 -18 -15 -22 -180 -5 -180 6 0 10
5 10 11 0 6 11 20 25 31 20 16 25 28 25 68 0 29 6 52 14 60 8 6 20 27 26 46 6
19 16 34 21 34 5 0 9 7 9 15 0 8 13 29 28 47 15 18 37 60 47 93 11 33 27 71
37 85 14 21 16 40 11 112 -6 85 -6 86 -34 92 -24 5 -29 10 -29 36 0 17 9 43
20 58 16 22 19 36 14 80 -7 57 -12 61 -37 34z m40 -298 c-9 -9 -28 6 -21 18 4
6 10 6 17 -1 6 -6 8 -13 4 -17z m-57 -42 c0 -13 -12 -22 -22 -16 -10 6 -1 24
13 24 5 0 9 -4 9 -8z"/>
<path d="M2657 13793 c-3 -5 -8 -36 -12 -70 -6 -55 -5 -64 14 -80 30 -25 26
-47 -11 -64 -41 -17 -46 -43 -19 -80 17 -23 20 -37 15 -68 -5 -33 -3 -41 15
-53 15 -9 21 -23 21 -49 0 -28 6 -41 30 -59 17 -13 30 -28 30 -33 0 -26 53
-118 85 -145 l35 -31 0 -224 0 -223 -52 -51 c-29 -28 -63 -54 -74 -57 -12 -4
-29 -15 -39 -26 -16 -18 -16 -20 -1 -26 9 -4 25 1 35 10 10 9 24 16 32 16 26
0 119 103 119 132 0 15 7 33 15 42 12 12 15 48 15 199 0 152 -3 187 -15 197
-11 9 -15 33 -15 88 0 56 -4 80 -16 93 -9 10 -14 25 -11 34 8 19 53 20 61 0 3
-8 16 -15 30 -15 13 0 26 -7 30 -15 4 -12 27 -15 120 -15 63 0 121 3 130 6 31
12 4 24 -54 24 -39 0 -64 5 -74 15 -10 10 -35 15 -81 15 -49 0 -67 4 -71 15
-4 8 -16 15 -28 15 -12 0 -33 13 -46 30 -30 35 -60 38 -86 9 -21 -23 -27 -69
-9 -69 19 0 45 -35 45 -58 0 -12 -4 -22 -8 -22 -14 0 -52 45 -52 62 0 9 -7 21
-15 28 -8 7 -15 21 -15 31 0 10 -4 21 -10 24 -18 11 -11 75 10 97 16 17 23 19
32 10 16 -16 25 -15 32 3 3 8 -2 21 -10 30 -8 8 -17 25 -19 37 -3 12 -8 24
-13 27 -5 3 -12 18 -16 34 -3 15 -11 27 -16 27 -6 0 -10 29 -10 64 0 44 -5 69
-15 80 -8 8 -15 19 -15 25 0 13 -17 23 -23 14z m47 -288 c7 -19 -3 -47 -15
-39 -12 7 -12 54 0 54 5 0 11 -7 15 -15z m146 -355 c0 -5 -4 -10 -10 -10 -5 0
-10 5 -10 10 0 6 5 10 10 10 6 0 10 -4 10 -10z"/>
<path d="M3280 13160 c-11 -7 -12 -12 -3 -21 14 -14 46 -4 41 13 -6 16 -20 19
-38 8z"/>
<path d="M3247 13043 c-4 -3 -7 -17 -7 -30 0 -20 5 -23 38 -23 41 0 80 29 67
49 -7 12 -87 15 -98 4z"/>
<path d="M3247 12893 c-4 -3 -7 -17 -7 -30 0 -20 5 -23 38 -23 27 0 45 7 60
23 12 13 19 27 15 30 -8 9 -98 9 -106 0z"/>
<path d="M3686 12783 c-3 -3 -6 -37 -6 -75 0 -52 4 -70 15 -74 8 -4 15 -17 15
-30 0 -12 6 -27 14 -31 8 -4 16 -19 18 -33 2 -18 10 -26 27 -28 14 -2 36 -17
50 -33 14 -16 35 -29 47 -29 12 0 24 -7 28 -15 3 -8 16 -15 30 -15 13 0 26 -7
30 -15 3 -9 18 -15 39 -15 19 0 40 -7 47 -15 7 -8 20 -15 30 -15 10 0 23 -7
30 -15 7 -9 19 -14 26 -11 7 2 20 -4 30 -15 10 -11 23 -18 30 -15 7 3 20 -4
30 -15 9 -10 23 -19 30 -19 7 0 34 -11 60 -25 26 -14 52 -25 58 -25 7 0 32
-20 56 -45 24 -25 52 -45 61 -45 9 0 22 -7 29 -15 8 -10 31 -15 66 -15 41 0
54 -4 54 -15 0 -9 9 -15 23 -15 13 0 33 -13 47 -30 14 -16 35 -29 48 -30 12 0
25 -7 28 -15 4 -10 19 -15 43 -15 29 0 42 -7 61 -30 21 -25 70 -42 70 -24 0
19 -67 74 -90 74 -15 0 -35 7 -46 15 -10 8 -25 15 -33 15 -7 0 -30 14 -51 30
-21 17 -45 30 -53 30 -8 0 -20 7 -27 15 -7 8 -28 15 -47 15 -21 0 -36 6 -39
15 -4 9 -19 15 -39 15 -26 0 -45 10 -82 45 -26 25 -53 45 -59 45 -6 0 -17 7
-24 15 -7 8 -21 15 -31 15 -9 0 -27 14 -39 30 -12 17 -30 30 -39 30 -10 0 -24
7 -31 15 -7 8 -20 15 -30 15 -10 0 -23 7 -30 15 -7 8 -28 15 -47 15 -19 0 -41
7 -49 15 -9 8 -24 15 -34 15 -10 0 -20 7 -24 15 -3 9 -18 15 -39 15 -48 0
-103 32 -170 100 l-59 60 6 53 c6 49 4 56 -22 90 -16 20 -32 34 -36 30z"/>
<path d="M3240 12755 c0 -14 10 -35 22 -47 19 -19 22 -20 33 -5 7 10 22 17 34
17 12 0 21 6 21 15 0 11 -11 15 -39 15 -25 0 -41 5 -45 15 -9 24 -26 17 -26
-10z"/>
<path d="M3242 12603 c2 -24 8 -29 37 -31 23 -2 39 2 52 17 31 33 23 41 -37
41 -54 0 -55 0 -52 -27z"/>
<path d="M3242 12468 c3 -40 5 -43 33 -46 52 -5 110 61 74 84 -7 4 -16 -1 -21
-10 -11 -20 -42 -21 -58 -1 -22 26 -31 16 -28 -27z"/>
<path d="M2590 12435 c-7 -8 -18 -15 -25 -15 -6 0 -32 -11 -56 -25 -24 -14
-51 -27 -59 -31 -8 -3 -22 -9 -30 -14 -8 -5 -35 -19 -60 -32 -25 -12 -60 -35
-78 -50 -18 -16 -38 -28 -45 -28 -7 0 -32 -20 -57 -45 -25 -24 -53 -44 -62
-45 -10 0 -27 -9 -38 -20 -11 -11 -31 -20 -45 -20 -14 0 -45 -9 -67 -20 -23
-11 -47 -20 -54 -20 -6 0 -17 -6 -23 -14 -7 -8 -25 -18 -41 -21 -16 -3 -31
-13 -34 -21 -3 -8 -12 -14 -21 -14 -8 0 -15 -4 -15 -10 0 -16 56 -12 70 5 7 8
20 15 30 15 10 0 23 7 30 15 7 8 20 15 30 15 10 0 23 7 30 15 7 8 20 15 30 15
10 0 23 7 30 15 7 8 27 15 45 15 18 0 38 7 45 15 7 8 18 15 26 15 7 0 33 20
58 45 26 25 53 45 62 45 8 0 29 14 46 30 16 17 38 30 49 30 10 0 19 5 19 10 0
6 9 10 19 10 11 0 26 6 33 13 7 8 26 17 41 21 15 3 27 11 27 16 0 6 9 10 19
10 11 0 26 7 35 15 8 8 24 15 35 15 11 0 24 6 28 14 4 8 17 15 27 17 11 2 21
10 24 17 6 18 -63 16 -78 -3z"/>
<path d="M3210 12337 c0 -31 27 -54 67 -58 26 -3 40 3 68 31 19 18 35 38 35
42 0 14 -42 9 -60 -7 -14 -13 -19 -13 -44 0 -43 22 -66 19 -66 -8z"/>
<path d="M3247 12213 c-4 -3 -7 -17 -7 -30 0 -20 5 -23 38 -23 38 0 72 23 72
48 0 13 -91 17 -103 5z"/>
<path d="M3247 12064 c-4 -4 -7 -25 -7 -46 0 -37 1 -38 38 -38 27 0 45 7 60
23 27 28 20 37 -26 37 -20 0 -40 7 -46 16 -6 8 -15 12 -19 8z"/>
<path d="M2627 12033 c-16 -15 -5 -23 33 -23 35 0 40 -3 46 -27 4 -15 13 -33
20 -40 12 -13 8 -53 -6 -53 -4 0 -10 7 -14 15 -11 30 -26 14 -26 -29 0 -60 -8
-76 -37 -76 -49 0 -17 -25 35 -28 l52 -3 0 33 c0 36 15 67 26 55 4 -4 8 -24
10 -44 1 -21 7 -39 13 -41 7 -2 11 -48 11 -134 0 -99 -3 -129 -12 -126 -8 3
-14 26 -16 54 -4 63 -48 114 -98 114 -17 0 -37 7 -44 15 -7 8 -27 15 -45 15
-18 0 -38 7 -45 15 -7 8 -27 15 -45 15 -18 0 -38 7 -45 15 -7 8 -29 15 -49 15
-29 0 -40 6 -56 30 -12 19 -29 30 -43 30 -12 0 -25 7 -28 15 -4 9 -19 15 -35
15 -16 0 -29 5 -29 10 0 6 -9 19 -20 30 -25 25 -120 29 -120 5 0 -11 11 -15
39 -15 25 0 41 -5 45 -15 3 -8 16 -15 28 -15 13 -1 34 -14 48 -30 13 -17 34
-30 46 -30 12 0 24 -7 28 -15 3 -8 16 -15 30 -15 13 0 26 -7 30 -15 3 -8 14
-15 24 -15 11 0 25 -7 32 -15 7 -8 27 -15 45 -15 18 0 38 -7 45 -15 7 -8 27
-15 45 -15 18 0 38 -7 45 -15 7 -8 27 -15 44 -15 21 0 40 -8 54 -23 19 -20 22
-35 22 -114 0 -87 1 -92 23 -95 21 -3 22 -9 25 -86 2 -57 -1 -89 -10 -99 -7
-9 -13 -56 -16 -122 -1 -58 -7 -107 -12 -109 -6 -2 -10 -25 -10 -52 0 -27 -6
-54 -13 -62 -8 -7 -17 -26 -21 -41 -3 -15 -11 -27 -16 -27 -6 0 -10 -8 -10
-17 0 -20 -48 -73 -66 -73 -6 0 -17 7 -24 15 -7 8 -20 15 -30 15 -10 0 -23 7
-30 15 -7 8 -23 15 -36 15 -18 0 -24 5 -24 23 0 23 -61 97 -79 97 -6 0 -11 14
-11 30 0 25 -4 30 -23 30 -38 0 -40 -12 -7 -41 16 -15 30 -35 30 -45 0 -21
130 -154 151 -154 9 0 22 -7 29 -15 7 -9 29 -15 54 -15 33 0 48 6 69 28 15 15
27 35 27 44 0 8 7 21 15 28 8 7 15 19 15 27 0 8 7 21 15 29 8 9 15 30 15 49 0
18 5 35 11 37 6 2 13 42 16 88 3 47 9 87 14 88 5 2 9 61 9 130 0 93 4 135 15
156 9 17 15 56 15 101 0 52 4 76 15 85 10 9 15 32 15 77 0 44 -5 69 -15 79 -8
9 -15 31 -15 50 0 19 -4 34 -10 34 -5 0 -13 12 -16 28 -4 15 -11 30 -16 33 -5
3 -10 23 -12 44 -2 21 -8 40 -13 44 -6 3 -13 18 -17 34 -6 25 -10 27 -55 27
-26 0 -51 -3 -54 -7z"/>
<path d="M3867 12002 c-26 -27 -37 -47 -37 -69 0 -17 -7 -36 -15 -43 -8 -7
-15 -20 -15 -30 0 -10 -7 -23 -15 -30 -8 -7 -15 -27 -15 -45 0 -18 -7 -38 -15
-45 -13 -10 -15 -50 -15 -240 0 -193 2 -229 15 -234 12 -4 15 -27 15 -114 0
-85 3 -112 15 -122 10 -9 15 -32 15 -77 0 -47 4 -65 15 -69 8 -4 15 -17 15
-30 0 -14 7 -27 15 -30 8 -4 15 -16 15 -28 0 -23 40 -66 61 -66 8 0 23 -7 33
-15 11 -8 36 -15 55 -15 31 0 46 10 109 71 39 38 72 77 72 86 0 8 18 33 40 54
26 25 40 48 40 64 0 14 -3 25 -6 25 -14 0 -104 -100 -104 -116 0 -13 -135
-154 -147 -154 -8 0 -91 47 -105 60 -10 8 -18 24 -18 36 0 12 -7 24 -15 28 -8
3 -15 16 -15 30 0 13 -7 26 -15 30 -12 4 -15 27 -15 114 0 85 -3 112 -15 122
-12 10 -15 38 -15 136 0 104 2 124 15 124 8 0 15 -4 15 -10 0 -5 7 -10 15 -10
12 0 15 16 15 84 0 65 3 85 15 90 8 3 15 17 15 31 0 20 5 25 25 25 14 0 28 7
31 15 4 8 14 15 24 15 10 0 25 7 34 15 8 8 24 15 36 15 11 0 23 7 26 15 4 8
17 15 30 15 14 0 27 7 30 15 4 8 16 15 29 15 13 0 25 7 29 15 3 8 16 15 28 15
13 1 34 14 48 30 13 17 33 30 45 30 11 1 31 14 45 30 13 17 34 30 46 30 12 0
24 7 28 15 3 8 16 15 30 15 13 0 26 7 30 15 3 8 17 15 32 15 40 0 23 24 -19
28 -27 2 -39 -1 -43 -12 -3 -9 -17 -16 -30 -16 -14 0 -27 -7 -30 -15 -4 -8
-16 -15 -28 -15 -12 0 -33 -13 -46 -30 -14 -16 -34 -29 -44 -30 -20 0 -86 -61
-86 -80 0 -5 -20 -10 -44 -10 -30 0 -46 -5 -50 -15 -3 -8 -16 -15 -30 -15 -13
0 -26 -7 -30 -15 -3 -10 -19 -15 -43 -15 -30 -1 -43 -7 -63 -30 -13 -17 -32
-30 -42 -30 -10 0 -27 -9 -38 -20 -17 -17 -20 -33 -20 -100 0 -84 -6 -94 -40
-60 -16 16 -20 33 -20 94 0 53 4 77 15 86 10 9 15 32 15 76 0 44 4 65 14 71 8
4 16 19 18 32 1 14 9 26 16 29 18 6 15 -45 -4 -56 -9 -5 -14 -18 -12 -33 2
-19 10 -25 38 -27 22 -2 38 2 45 11 6 8 21 17 33 19 31 4 29 22 -3 26 -18 2
-25 -1 -25 -13 0 -33 -25 -7 -28 29 -2 21 -10 40 -18 43 -9 3 -14 19 -14 42 0
52 31 79 95 83 50 3 65 20 23 26 -13 2 -27 10 -31 18 -14 24 -41 16 -80 -24z"/>
<path d="M1662 11921 c-40 -39 -71 -80 -88 -118 -15 -32 -30 -60 -34 -63 -4
-3 -10 -17 -14 -32 -3 -16 -11 -28 -16 -28 -6 0 -10 -14 -10 -32 0 -17 -8 -40
-17 -50 -11 -13 -16 -33 -14 -67 1 -33 -3 -52 -14 -61 -14 -12 -22 -60 -9 -60
16 0 43 48 44 76 0 17 7 37 15 44 9 8 15 30 15 60 0 30 6 52 15 60 8 7 15 20
15 30 0 10 7 23 15 30 8 7 15 20 15 30 0 10 7 23 15 30 8 7 15 20 15 29 0 9
34 50 75 91 40 40 72 77 69 82 -11 18 -34 5 -92 -51z"/>
<path d="M4960 11890 c0 -12 11 -31 25 -44 16 -15 25 -34 25 -54 0 -17 7 -37
15 -46 8 -8 15 -31 15 -51 0 -22 6 -38 15 -41 10 -4 15 -20 15 -52 0 -28 6
-52 16 -63 13 -15 16 -42 15 -154 -1 -74 1 -140 4 -145 3 -6 17 3 31 19 21 26
24 38 24 118 0 79 -2 90 -21 101 -17 11 -20 20 -14 48 5 27 1 41 -15 62 -18
22 -20 35 -15 69 5 34 3 44 -9 49 -11 4 -16 19 -16 45 0 26 -5 42 -15 45 -8 4
-15 15 -15 25 0 19 -56 89 -71 89 -5 0 -9 -9 -9 -20z"/>
<path d="M3226 11838 c-18 -20 -17 -21 20 -59 l38 -39 38 41 c44 47 46 73 6
77 -22 3 -27 -1 -30 -24 -4 -37 -26 -42 -30 -8 -4 34 -18 38 -42 12z"/>
<path d="M2945 11790 c-10 -16 17 -21 95 -18 48 2 75 7 78 16 5 15 -163 17
-173 2z"/>
<path d="M3300 11596 c0 -26 -23 -36 -35 -16 -3 6 -17 10 -31 10 -19 0 -24 -5
-24 -24 0 -29 42 -66 75 -66 33 0 47 23 43 71 -3 46 -28 68 -28 25z"/>
<path d="M3295 11342 c-13 -13 -19 -14 -22 -4 -3 6 -11 12 -19 12 -10 0 -14
-12 -14 -40 0 -35 3 -40 23 -40 13 0 33 10 45 23 36 38 24 84 -13 49z"/>
<path d="M1440 11201 c0 -10 -7 -21 -15 -25 -8 -3 -15 -13 -15 -23 1 -18 32
-63 44 -63 3 0 6 29 6 65 0 37 -4 65 -10 65 -5 0 -10 -9 -10 -19z"/>
<path d="M3217 11143 c-4 -3 -7 -16 -7 -27 1 -30 44 -58 83 -54 28 3 32 7 35
37 4 44 -13 62 -33 35 -14 -18 -16 -18 -26 -1 -10 17 -40 23 -52 10z"/>
<path d="M4561 11127 c-12 -14 -21 -36 -21 -54 0 -17 -7 -36 -15 -43 -10 -9
-15 -32 -15 -77 0 -47 -4 -65 -15 -69 -11 -4 -15 -21 -15 -59 0 -34 -5 -57
-15 -65 -8 -7 -15 -27 -15 -45 0 -18 -7 -38 -15 -45 -8 -7 -15 -27 -15 -45 0
-18 -7 -38 -15 -45 -9 -8 -15 -30 -15 -60 0 -33 -5 -50 -15 -54 -19 -7 -22
-121 -2 -130 10 -5 10 -7 0 -12 -7 -3 -13 -12 -13 -19 0 -7 -7 -15 -15 -19
-11 -4 -15 -22 -15 -76 0 -59 3 -70 17 -70 9 0 13 3 10 7 -4 3 2 16 12 27 16
17 21 38 23 105 2 50 7 86 14 88 6 2 25 -10 43 -26 l31 -29 0 58 c0 39 -5 62
-15 70 -11 9 -15 34 -15 100 0 66 4 91 15 100 8 7 15 27 15 45 0 18 7 38 15
45 8 7 15 27 15 45 0 18 7 38 15 45 11 9 15 33 15 90 0 57 4 81 15 90 8 7 15
27 15 45 0 18 7 38 15 45 16 14 20 46 6 54 -4 3 -18 -5 -30 -17z"/>
<path d="M5120 11105 c0 -8 -4 -15 -10 -15 -5 0 -10 -6 -10 -14 0 -8 -7 -16
-15 -20 -11 -4 -15 -22 -15 -71 0 -49 4 -67 15 -71 10 -4 15 -21 15 -54 0 -30
6 -54 15 -64 8 -8 15 -32 15 -56 0 -41 35 -105 52 -94 14 9 9 57 -9 77 -13 13
-17 33 -16 67 2 35 -3 52 -16 64 -16 15 -17 30 -13 141 3 69 2 125 -2 125 -3
0 -6 -7 -6 -15z"/>
<path d="M1910 10996 c0 -1 11 -23 23 -47 18 -33 25 -67 30 -138 3 -52 11 -99
16 -104 6 -6 11 -29 11 -52 0 -23 7 -50 15 -61 8 -10 15 -33 15 -50 0 -17 7
-37 15 -44 10 -8 15 -30 15 -62 0 -31 -6 -55 -15 -64 -9 -9 -15 -34 -15 -60 0
-28 -6 -51 -16 -62 -11 -11 -15 -27 -11 -53 3 -24 0 -42 -9 -51 -8 -8 -16 -36
-18 -62 -2 -26 -9 -53 -15 -59 -6 -6 -11 -31 -11 -56 0 -24 -6 -52 -14 -60
-12 -13 -22 -104 -17 -154 1 -5 12 5 26 21 21 25 25 40 25 98 1 45 6 76 15 88
8 11 15 40 15 64 0 25 6 50 15 58 9 10 15 34 15 63 0 31 5 53 15 61 8 7 15 29
15 49 0 20 4 43 10 51 7 11 11 9 19 -12 5 -14 21 -38 35 -53 l26 -28 0 45 c0
28 -6 50 -15 58 -9 8 -15 30 -15 60 0 30 -6 52 -15 60 -8 7 -15 27 -15 45 0
18 -7 38 -15 45 -8 7 -14 25 -13 40 1 16 -3 34 -9 42 -5 7 -13 42 -17 78 -3
35 -11 69 -16 74 -6 6 -10 39 -10 76 0 83 -32 160 -67 160 -13 0 -23 -2 -23
-4z"/>
<path d="M3297 10925 c-4 -10 -20 -15 -47 -15 -35 0 -40 -3 -40 -23 0 -26 38
-67 61 -67 28 1 61 47 57 81 -3 35 -22 49 -31 24z"/>
<path d="M1433 10870 c-3 -11 -9 -20 -13 -20 -5 0 -11 -19 -15 -42 -4 -24 -12
-48 -17 -55 -5 -6 -10 -25 -10 -42 -1 -16 -7 -32 -15 -35 -16 -6 -18 -102 -2
-111 20 -13 38 29 39 91 0 42 5 65 15 74 8 7 15 27 15 45 0 18 7 38 15 45 17
14 20 70 4 70 -6 0 -13 -9 -16 -20z"/>
<path d="M3290 10715 c-7 -8 -28 -15 -46 -15 -29 0 -34 -4 -34 -23 0 -26 32
-57 58 -57 29 0 64 44 60 76 -4 32 -20 41 -38 19z"/>
<path d="M5173 10571 c-16 -25 -19 -371 -4 -371 5 0 12 -8 14 -17 3 -10 5 -4
6 13 0 17 8 37 16 44 21 18 22 262 1 283 -8 8 -16 26 -18 41 -3 26 -3 26 -15
7z"/>
<path d="M1343 10504 c-19 -21 -23 -38 -23 -90 0 -36 4 -64 10 -64 6 0 10 7
10 15 0 8 7 15 15 15 12 0 15 15 15 75 0 41 -1 75 -2 75 -2 0 -13 -12 -25 -26z"/>
<path d="M3300 10485 c-6 -7 -28 -15 -48 -17 -29 -2 -38 -8 -40 -25 -4 -25 30
-63 56 -63 28 0 62 42 62 78 0 36 -13 48 -30 27z"/>
<path d="M4460 10259 c0 -26 7 -50 17 -61 12 -14 16 -34 14 -76 -2 -43 2 -62
13 -71 11 -9 16 -30 16 -61 0 -30 6 -52 15 -60 9 -8 15 -30 15 -60 0 -25 3
-50 8 -54 6 -6 12 -220 11 -412 0 -34 5 -55 16 -64 8 -7 15 -25 15 -41 0 -15
7 -35 16 -43 11 -12 15 -34 13 -86 -2 -60 1 -74 19 -93 17 -18 20 -30 15 -60
-4 -29 -1 -42 13 -58 11 -12 17 -32 16 -48 -2 -17 4 -34 18 -46 13 -12 18 -25
14 -37 -3 -11 1 -30 10 -43 9 -13 16 -35 16 -48 0 -13 7 -32 15 -43 8 -10 15
-27 15 -36 0 -10 4 -18 9 -18 13 0 95 -169 94 -191 -1 -10 2 -21 8 -24 5 -4 9
-14 9 -24 0 -10 7 -24 15 -31 8 -7 15 -19 15 -28 0 -8 7 -23 15 -32 8 -9 17
-31 19 -49 2 -18 9 -38 15 -44 6 -6 11 -19 11 -28 0 -9 7 -22 16 -30 9 -8 14
-25 12 -45 -1 -20 4 -40 15 -52 9 -10 17 -26 17 -34 0 -9 7 -21 15 -28 8 -7
15 -27 15 -44 1 -18 11 -44 25 -61 l25 -30 0 51 c0 34 -5 56 -15 64 -8 7 -15
27 -15 45 0 18 -7 38 -15 45 -8 7 -15 20 -15 30 0 10 -7 23 -15 30 -8 7 -15
20 -15 30 0 10 -7 23 -15 30 -8 7 -13 16 -10 20 3 4 -5 20 -16 34 -12 16 -19
35 -16 47 3 10 -1 26 -9 33 -8 8 -14 24 -14 36 0 11 -7 23 -15 26 -8 4 -15 17
-15 30 0 13 -8 28 -18 33 -14 7 -17 18 -14 45 3 26 0 37 -12 42 -9 3 -16 17
-16 30 0 14 -7 27 -15 30 -10 4 -15 20 -15 45 0 26 -5 42 -15 45 -8 4 -15 17
-15 30 0 14 -7 27 -15 30 -10 4 -15 20 -15 45 0 26 -5 42 -15 45 -10 4 -15 20
-15 45 0 26 -5 42 -15 45 -11 4 -15 21 -15 59 0 38 -4 55 -15 59 -11 4 -15 22
-15 69 0 45 -5 68 -15 77 -21 17 -19 80 2 95 16 12 14 15 -15 40 -18 15 -32
35 -32 45 0 10 -7 23 -15 30 -8 7 -15 27 -15 45 0 18 7 38 15 45 12 10 15 38
15 135 0 97 -3 125 -15 135 -10 9 -15 32 -15 75 0 47 -4 64 -15 69 -11 4 -15
21 -15 60 0 39 -4 55 -15 60 -11 4 -15 21 -15 61 0 42 -3 55 -15 55 -11 0 -15
12 -15 51 0 40 -5 58 -25 81 l-25 30 0 -43z"/>
<path d="M3217 10223 c-29 -28 24 -86 74 -81 30 3 34 7 37 37 4 42 -13 62 -31
37 -12 -16 -14 -16 -26 -2 -14 16 -42 21 -54 9z"/>
<path d="M2120 10071 c0 -44 4 -71 12 -73 7 -3 11 -26 9 -69 -2 -53 1 -68 17
-82 15 -14 18 -27 14 -67 -3 -34 0 -57 10 -72 8 -13 17 -45 20 -72 3 -27 11
-52 18 -56 8 -5 12 -62 13 -191 2 -153 -1 -186 -13 -196 -12 -9 -15 -47 -16
-212 -2 -170 -4 -203 -18 -216 -20 -21 -21 -85 -1 -111 14 -18 14 -18 15 4 0
12 7 25 15 28 11 4 15 21 15 57 0 47 3 54 41 89 22 21 47 38 56 38 8 0 21 7
29 15 9 8 29 15 45 15 17 0 37 7 45 15 11 11 38 15 98 15 62 0 87 -4 96 -15 7
-8 27 -15 44 -15 26 0 47 -15 128 -97 80 -82 97 -104 100 -133 3 -30 7 -35 31
-38 25 -3 27 -1 27 36 0 23 -6 45 -15 52 -8 7 -15 20 -15 29 0 21 -40 61 -61
61 -8 0 -41 27 -74 60 -33 33 -67 60 -76 60 -9 0 -22 7 -29 15 -7 8 -27 15
-45 15 -18 0 -38 7 -45 15 -7 9 -29 15 -55 15 -26 0 -48 -6 -55 -15 -8 -9 -29
-15 -56 -15 -23 0 -49 -6 -56 -13 -7 -8 -26 -17 -41 -21 -15 -3 -27 -11 -27
-16 0 -6 -13 -10 -30 -10 -25 0 -30 4 -30 24 0 13 -7 29 -15 36 -8 7 -15 25
-15 40 0 15 7 33 15 40 19 15 22 190 4 190 -6 0 0 15 15 34 24 32 26 42 26
139 0 82 -3 107 -16 117 -10 9 -14 26 -12 49 2 29 8 37 26 39 30 4 92 67 92
92 0 30 -18 24 -62 -21 l-40 -41 -24 23 c-19 18 -24 33 -24 70 0 29 -6 51 -15
59 -10 9 -15 31 -15 72 0 39 -5 64 -15 74 -11 11 -15 38 -15 95 0 64 -3 79
-15 79 -8 0 -15 7 -15 15 0 8 -4 15 -10 15 -6 0 -10 -30 -10 -69z"/>
<path d="M4323 10091 c-18 -23 -23 -44 -23 -89 0 -41 -5 -64 -15 -72 -9 -8
-15 -30 -15 -60 0 -31 -5 -52 -16 -61 -12 -10 -15 -27 -12 -73 3 -60 3 -61
-25 -64 -18 -2 -29 2 -33 12 -3 9 -16 16 -28 16 -12 0 -35 14 -51 30 -30 31
-49 37 -60 19 -9 -14 59 -79 83 -79 11 0 22 -7 26 -15 3 -8 14 -15 24 -15 11
0 24 -6 30 -12 6 -8 11 -88 11 -203 0 -104 1 -193 1 -197 0 -5 6 -8 13 -8 9 0
11 -36 10 -152 -2 -84 -3 -156 -3 -160 0 -14 -47 -8 -60 7 -7 8 -20 15 -30 15
-10 0 -23 7 -30 15 -7 8 -26 15 -42 15 -16 0 -36 7 -44 15 -11 10 -36 15 -84
15 -48 0 -73 -5 -84 -15 -8 -8 -24 -15 -36 -15 -11 0 -23 -7 -26 -15 -4 -8
-17 -15 -30 -15 -14 0 -27 -7 -30 -15 -4 -8 -17 -15 -30 -15 -14 0 -27 -7 -30
-15 -4 -8 -15 -15 -26 -15 -11 0 -44 -26 -74 -57 -52 -54 -55 -61 -52 -102 3
-44 28 -73 28 -33 0 12 7 27 15 36 8 8 15 22 15 30 0 22 76 96 99 96 10 0 21
7 25 15 3 8 16 15 30 15 13 0 26 7 30 15 3 8 15 15 26 15 12 0 28 7 36 15 12
11 40 15 114 15 74 0 102 -4 114 -15 8 -8 28 -15 44 -15 16 0 35 -7 42 -15 7
-8 20 -15 29 -15 9 0 34 -17 54 -38 31 -31 37 -45 37 -79 0 -24 7 -48 15 -57
12 -11 15 -43 15 -150 0 -106 3 -138 15 -150 11 -11 15 -38 15 -101 0 -77 3
-90 25 -119 26 -35 32 -61 15 -71 -17 -10 -12 -141 5 -155 12 -10 15 -40 15
-152 0 -114 3 -140 15 -144 8 -4 15 -12 15 -20 0 -8 6 -14 14 -14 9 0 15 23
19 83 8 95 1 155 -21 179 -11 13 -14 38 -13 91 1 56 -2 77 -14 87 -12 10 -15
37 -15 136 0 68 -4 124 -9 124 -18 0 -23 37 -21 164 1 108 -2 132 -16 147 -13
14 -17 34 -15 73 1 37 -3 57 -14 66 -12 10 -15 42 -15 193 0 153 -2 182 -16
191 -14 11 -16 45 -15 271 2 212 4 262 16 275 10 11 15 38 15 74 0 39 5 63 16
73 10 10 14 30 13 54 -2 27 3 46 15 61 16 18 17 30 10 91 l-9 69 -22 -31z"/>
<path d="M5152 10091 c-32 -44 -31 -130 2 -166 l24 -25 6 26 c8 31 6 151 -3
177 -6 16 -9 14 -29 -12z"/>
<path d="M1320 10096 c0 -8 -7 -17 -16 -20 -13 -5 -15 -29 -13 -171 2 -142 0
-167 -14 -183 -9 -10 -17 -23 -17 -28 0 -22 -70 -151 -94 -173 -14 -14 -26
-30 -26 -37 0 -6 -7 -17 -15 -24 -8 -7 -15 -27 -15 -45 0 -18 -7 -38 -15 -45
-8 -7 -15 -19 -15 -28 0 -8 -7 -24 -17 -34 -10 -12 -16 -33 -15 -62 2 -31 -3
-48 -18 -61 -16 -14 -18 -26 -13 -64 7 -58 19 -72 32 -39 5 15 15 29 20 33 6
3 11 28 11 55 0 33 5 50 15 54 11 4 15 21 15 60 0 39 4 55 15 60 8 3 15 15 15
26 0 12 7 28 15 36 8 9 15 28 15 44 0 18 11 39 30 58 17 17 30 37 30 45 0 8 7
20 15 27 9 7 13 21 10 30 -3 11 1 20 10 24 8 3 15 14 15 24 0 11 7 25 15 32 8
7 15 25 15 39 0 15 7 36 15 47 11 15 14 54 15 177 0 98 -4 157 -10 157 -5 0
-10 -6 -10 -14z"/>
<path d="M3212 9978 c3 -40 5 -43 34 -46 51 -5 109 62 73 84 -6 3 -15 0 -20
-7 -7 -11 -12 -12 -29 -1 -11 6 -29 12 -40 12 -19 0 -21 -5 -18 -42z"/>
<path d="M3090 9890 c0 -5 -12 -13 -26 -16 -32 -8 -124 -99 -124 -122 0 -9
-20 -35 -45 -57 -25 -22 -45 -48 -45 -58 0 -23 -62 -87 -84 -87 -9 0 -30 -14
-47 -31 -17 -17 -33 -28 -37 -24 -4 4 1 12 10 19 21 15 8 39 -18 34 -14 -2
-20 -13 -22 -46 l-3 -42 41 0 c27 0 43 5 46 15 4 8 16 15 28 15 24 0 56 32 56
56 0 9 41 57 90 106 50 49 90 95 90 104 0 19 48 64 68 64 8 0 24 11 36 23 12
13 34 27 49 31 16 3 25 11 22 16 -8 13 -85 13 -85 0z"/>
<path d="M3390 9892 c0 -4 45 -52 100 -107 55 -55 100 -107 100 -115 0 -20
101 -120 122 -120 8 0 21 -7 28 -15 18 -22 76 -19 101 6 l21 21 -23 24 c-26
28 -54 31 -68 7 -9 -17 -10 -17 -28 0 -11 9 -26 17 -35 17 -18 0 -58 41 -58
61 0 24 -212 229 -238 229 -12 0 -22 -3 -22 -8z"/>
<path d="M5173 9863 c-18 -6 -16 -58 2 -73 8 -7 15 -20 15 -30 0 -10 7 -23 15
-30 8 -7 15 -20 15 -30 0 -10 7 -23 15 -30 8 -7 15 -20 15 -30 0 -10 7 -23 15
-30 8 -7 15 -27 15 -45 0 -18 7 -38 15 -45 8 -7 15 -27 15 -45 0 -18 7 -38 15
-45 8 -7 15 -28 15 -47 0 -21 6 -36 15 -39 10 -4 15 -20 15 -45 0 -26 5 -42
15 -45 8 -4 15 -13 15 -21 0 -8 5 -11 10 -8 15 9 12 41 -5 55 -10 8 -15 30
-15 61 0 26 -4 51 -10 54 -5 3 -10 24 -10 46 0 26 -5 42 -15 45 -10 4 -15 19
-15 43 0 20 -5 42 -11 48 -16 16 -41 62 -97 183 -9 19 -22 42 -29 50 -6 8 -13
24 -15 36 -1 11 -9 19 -15 17z"/>
<path d="M3223 9813 c-19 -7 -15 -41 7 -63 25 -25 59 -26 66 -2 3 9 10 25 15
35 5 10 7 22 4 27 -6 10 -70 12 -92 3z"/>
<path d="M2615 9680 c-54 -55 -105 -100 -114 -100 -10 0 -32 -14 -49 -31 -18
-18 -36 -29 -40 -25 -4 4 1 14 12 21 21 15 14 35 -13 35 -31 0 -63 -44 -59
-81 3 -31 6 -34 39 -37 31 -3 41 3 93 58 31 33 65 60 74 60 27 0 186 165 179
184 -4 9 -10 16 -15 16 -4 0 -52 -45 -107 -100z"/>
<path d="M3806 9751 c-3 -5 28 -42 69 -84 45 -45 75 -83 75 -96 0 -16 6 -21
25 -21 13 0 28 -8 34 -17 9 -16 11 -16 28 -1 10 9 27 18 38 20 27 5 31 36 6
59 -26 24 -41 24 -41 0 0 -41 -21 -29 -108 59 -83 84 -113 103 -126 81z"/>
<path d="M4987 9743 c-13 -12 -7 -109 8 -129 8 -10 15 -29 15 -41 0 -21 36
-102 50 -113 4 -3 10 -17 14 -32 5 -21 12 -28 31 -28 28 0 32 14 10 36 -8 9
-15 24 -15 34 0 10 -7 20 -15 24 -8 3 -15 13 -15 23 0 10 -7 27 -15 37 -10 13
-15 44 -15 91 0 57 -4 75 -18 88 -20 19 -26 20 -35 10z"/>
<path d="M1898 9705 c-15 -20 -18 -46 -18 -154 l0 -131 -46 -46 c-41 -42 -44
-48 -30 -63 21 -23 22 -109 1 -117 -11 -5 -15 -22 -15 -69 0 -43 -5 -66 -15
-75 -9 -8 -15 -30 -15 -60 0 -30 -6 -52 -15 -60 -8 -7 -15 -27 -15 -45 0 -18
-7 -38 -15 -45 -8 -7 -15 -20 -15 -30 0 -10 -7 -23 -15 -30 -8 -7 -15 -27 -15
-45 0 -18 -7 -38 -15 -45 -8 -7 -15 -20 -15 -30 0 -10 -7 -23 -15 -30 -8 -7
-15 -20 -15 -30 0 -10 -7 -23 -15 -30 -8 -7 -15 -20 -15 -30 0 -10 -7 -23 -15
-30 -8 -7 -15 -20 -15 -30 0 -10 -7 -23 -15 -30 -8 -7 -15 -27 -15 -45 0 -18
-7 -38 -15 -45 -8 -7 -15 -20 -15 -30 0 -10 -7 -23 -15 -30 -8 -7 -15 -20 -15
-30 0 -10 -7 -23 -15 -30 -8 -7 -15 -28 -15 -47 0 -21 -6 -36 -15 -39 -8 -4
-15 -17 -15 -30 0 -14 -7 -27 -15 -30 -9 -4 -15 -19 -15 -41 0 -19 -7 -41 -15
-49 -8 -9 -15 -29 -15 -45 0 -17 -7 -37 -15 -45 -11 -11 -15 -38 -15 -95 0
-76 -1 -79 -23 -79 -12 0 -30 -9 -40 -20 -18 -22 -22 -40 -8 -40 5 0 11 -9 14
-20 6 -22 27 -28 27 -7 0 7 14 26 30 42 22 21 30 38 30 64 0 26 6 40 21 49 19
12 21 20 15 67 -4 38 -2 61 9 81 8 16 15 41 15 56 0 14 5 28 10 30 6 2 13 21
15 43 3 22 10 44 15 49 6 6 10 17 10 25 0 18 107 238 120 246 6 4 10 14 10 24
0 10 7 24 15 31 8 7 15 20 15 30 0 10 7 23 15 30 8 7 15 20 15 30 0 10 7 23
15 30 8 7 14 24 14 39 -2 28 16 68 44 95 10 10 17 33 17 56 0 24 5 40 15 44 9
3 15 19 15 41 0 20 7 43 15 51 9 9 13 25 9 38 -3 14 1 27 10 35 11 9 16 31 16
66 0 39 4 54 16 59 12 5 15 19 12 72 -2 53 1 68 15 79 12 8 17 26 17 58 0 37
6 53 30 80 l30 35 -1 133 c0 74 -3 141 -7 151 -6 14 -9 13 -24 -7z"/>
<path d="M1765 9688 c-2 -7 -6 -40 -7 -73 l-3 -60 -65 -3 c-49 -2 -70 -8 -87
-24 -12 -11 -20 -25 -17 -29 9 -15 71 -10 85 7 11 14 14 14 24 1 6 -8 22 -17
35 -19 21 -2 26 -9 28 -41 2 -26 -1 -39 -12 -43 -11 -4 -16 -19 -16 -45 0 -26
-5 -42 -15 -45 -8 -4 -15 -17 -15 -30 0 -14 -7 -27 -15 -30 -8 -4 -15 -17 -15
-30 0 -14 -7 -27 -15 -30 -17 -7 -22 -84 -5 -84 25 0 50 36 50 71 0 24 5 39
15 43 8 3 15 16 15 30 0 13 7 26 15 30 8 3 15 17 15 31 0 16 6 25 15 25 13 0
15 23 15 144 0 117 3 146 15 156 23 19 15 54 -13 58 -12 2 -24 -3 -27 -10z"/>
<path d="M4727 9664 c-4 -4 -7 -69 -7 -144 0 -110 3 -140 15 -150 8 -7 15 -20
15 -30 0 -10 7 -23 15 -30 8 -7 15 -27 15 -45 0 -18 7 -38 15 -45 8 -7 15 -20
15 -29 0 -10 14 -30 30 -46 17 -16 30 -37 30 -48 0 -30 25 -13 28 20 2 18 -3
35 -12 43 -9 7 -16 20 -16 29 0 10 -13 30 -30 46 -21 20 -30 38 -30 61 0 17
-7 37 -15 44 -11 9 -15 32 -15 81 l0 69 85 0 c89 0 97 5 68 40 -21 24 -75 27
-93 5 -7 -8 -23 -15 -36 -15 -22 0 -23 4 -26 73 -3 64 -5 72 -23 75 -12 2 -24
0 -28 -4z"/>
<path d="M1490 9606 c0 -39 -4 -55 -15 -60 -11 -4 -15 -22 -15 -69 0 -45 -5
-68 -15 -77 -8 -7 -15 -20 -15 -30 0 -10 -7 -23 -15 -30 -17 -14 -20 -46 -5
-55 17 -11 79 67 80 101 0 17 7 37 15 44 12 10 15 37 15 121 0 90 -3 109 -15
109 -11 0 -15 -13 -15 -54z"/>
<path d="M3217 9634 c-23 -23 14 -84 51 -84 25 0 65 44 60 67 -2 14 -14 19
-53 21 -28 2 -54 0 -58 -4z"/>
<path d="M3297 9445 c-4 -10 -20 -15 -47 -15 -35 0 -40 -3 -40 -23 0 -26 38
-67 61 -67 28 1 61 47 57 81 -3 35 -22 49 -31 24z"/>
<path d="M3210 9212 c0 -5 6 -15 14 -22 8 -6 16 -21 18 -33 4 -31 35 -33 64
-3 41 41 29 60 -39 64 -31 2 -57 -1 -57 -6z"/>
<path d="M5400 9154 c0 -24 8 -46 25 -66 l25 -30 0 44 c-1 27 -8 51 -19 66
-26 30 -31 28 -31 -14z"/>
<path d="M1006 9015 c-24 -31 -26 -40 -19 -77 8 -39 33 -66 33 -35 0 8 7 20
15 27 16 14 21 105 6 114 -5 3 -21 -10 -35 -29z"/>
<path d="M3225 9019 c-19 -19 -19 -21 -2 -33 9 -7 17 -23 17 -35 0 -29 40 -28
68 2 36 39 24 107 -14 76 -11 -9 -18 -9 -26 -1 -16 16 -19 15 -43 -9z"/>
<path d="M5430 8973 c0 -54 4 -72 15 -77 12 -4 15 -26 15 -105 0 -79 3 -100
15 -105 12 -4 15 -25 15 -98 1 -78 4 -97 21 -117 11 -13 22 -22 25 -19 10 10
6 100 -5 111 -6 6 -11 44 -11 88 0 52 -5 82 -13 91 -9 9 -16 51 -19 123 -4 66
-10 111 -17 113 -6 2 -11 9 -11 15 0 7 -7 21 -15 31 -14 18 -15 13 -15 -51z"/>
<path d="M977 8844 c-27 -33 -28 -39 -22 -97 4 -34 12 -68 18 -75 10 -13 -7
-59 -28 -74 -5 -4 -9 -33 -8 -64 2 -36 -2 -66 -11 -78 -7 -12 -15 -47 -18 -78
-3 -34 -12 -65 -21 -76 -13 -14 -15 -30 -10 -70 4 -39 2 -57 -9 -70 -9 -9 -18
-35 -21 -57 -4 -22 -11 -41 -17 -43 -5 -2 -10 -16 -10 -31 0 -14 -7 -37 -17
-50 -10 -15 -15 -41 -14 -68 1 -38 -4 -49 -40 -88 -23 -25 -63 -56 -88 -68
-35 -18 -47 -30 -49 -50 -4 -35 7 -34 38 3 13 17 32 30 41 30 10 0 40 24 68
53 40 41 51 59 51 85 0 20 6 35 15 38 10 4 15 20 15 45 0 26 5 42 15 45 10 4
15 20 15 45 0 26 5 42 15 45 11 4 15 21 15 59 0 38 4 55 15 59 11 4 15 22 15
75 0 52 4 70 15 75 11 4 15 22 15 75 0 52 4 70 15 75 12 4 15 25 15 99 0 72 4
98 15 107 11 9 15 33 15 86 0 41 -3 74 -7 74 -5 0 -21 -16 -36 -36z"/>
<path d="M3270 8795 c-7 -8 -21 -15 -31 -15 -25 0 -35 -21 -15 -32 9 -5 16
-20 16 -33 0 -33 38 -34 69 -1 30 31 27 89 -5 94 -11 2 -27 -4 -34 -13z"/>
<path d="M3446 8645 c-3 -8 -16 -15 -30 -15 -13 0 -26 -7 -30 -15 -4 -12 -27
-15 -114 -15 -85 0 -112 3 -122 15 -13 15 -71 21 -83 8 -10 -10 34 -53 54 -53
9 0 22 -7 29 -15 9 -11 35 -15 107 -15 74 0 95 3 99 15 4 10 19 15 43 15 46 0
88 41 75 74 -8 20 -20 21 -28 1z"/>
<path d="M2180 8616 c0 -8 -7 -16 -15 -20 -12 -4 -15 -23 -15 -84 0 -59 -4
-83 -15 -92 -10 -9 -15 -32 -15 -77 0 -47 -4 -65 -15 -69 -9 -4 -15 -19 -15
-39 0 -19 -7 -40 -15 -49 -8 -8 -15 -31 -15 -51 0 -24 -5 -38 -16 -42 -14 -5
-15 -16 -10 -68 5 -54 4 -64 -14 -80 -25 -23 -29 -115 -5 -115 8 0 15 6 15 14
0 8 4 16 10 18 5 2 10 31 11 66 1 38 8 69 16 77 7 8 13 34 13 58 0 27 6 49 15
57 8 7 15 27 15 45 0 18 7 38 15 45 10 8 15 31 15 65 0 38 4 55 15 59 11 4 15
22 15 75 0 52 4 70 15 75 11 4 15 22 15 76 0 40 -4 70 -10 70 -5 0 -10 -6 -10
-14z"/>
<path d="M3494 8487 c-16 -17 -20 -32 -17 -71 2 -32 -3 -58 -12 -73 -8 -12
-15 -28 -15 -35 0 -7 -28 -41 -62 -76 -51 -51 -60 -64 -48 -72 8 -5 17 -10 20
-10 3 0 36 31 74 69 63 63 69 73 73 118 2 26 8 50 13 51 12 4 14 122 3 122 -5
0 -17 -10 -29 -23z"/>
<path d="M2947 8473 c-4 -3 -7 -28 -7 -55 0 -34 5 -50 15 -54 10 -4 15 -20 15
-44 0 -29 6 -42 30 -60 17 -13 30 -31 30 -41 0 -25 30 -54 64 -63 14 -3 26
-11 26 -16 0 -6 7 -10 15 -10 21 0 19 36 -4 59 -10 10 -30 21 -45 25 -19 5
-26 13 -26 30 0 13 -7 26 -15 30 -8 3 -15 16 -15 30 0 13 -7 26 -15 30 -10 3
-15 19 -15 45 0 25 -5 41 -15 45 -8 3 -15 17 -15 31 0 24 -10 32 -23 18z"/>
<path d="M5520 8371 c0 -40 5 -63 15 -71 9 -8 15 -30 15 -60 0 -30 6 -52 15
-60 9 -8 15 -30 15 -60 0 -33 5 -50 15 -54 9 -3 15 -19 15 -41 0 -20 7 -43 15
-51 8 -9 15 -31 15 -50 0 -19 4 -34 10 -34 5 0 13 -12 16 -27 9 -33 65 -93 87
-93 9 0 56 -40 105 -90 87 -87 105 -100 116 -81 9 13 -170 190 -198 197 -27 6
-86 66 -86 86 0 7 -7 22 -15 32 -8 11 -15 41 -15 67 0 29 -6 51 -15 59 -8 7
-15 27 -15 44 0 17 -7 40 -15 50 -8 11 -15 39 -15 62 0 29 -5 44 -16 48 -13 5
-16 18 -12 66 3 49 1 63 -14 77 -10 9 -18 22 -18 30 0 7 -4 13 -10 13 -6 0
-10 -26 -10 -59z"/>
<path d="M3223 8123 c-10 -4 -13 -78 -13 -324 0 -275 -2 -320 -15 -325 -8 -4
-15 -16 -15 -27 0 -23 -44 -67 -68 -67 -8 0 -31 -18 -52 -40 -21 -23 -47 -40
-59 -40 -12 0 -24 -7 -27 -15 -4 -8 -14 -15 -24 -15 -10 0 -25 -7 -34 -15 -12
-12 -50 -15 -214 -15 -168 0 -201 2 -206 15 -3 8 -17 15 -31 15 -14 0 -25 4
-25 10 0 5 -12 13 -26 16 -15 4 -43 23 -63 44 -40 40 -62 52 -79 41 -8 -5 11
-31 53 -74 51 -53 71 -67 94 -67 16 0 36 -7 45 -15 8 -8 31 -15 51 -15 22 0
38 -6 41 -15 5 -12 33 -15 161 -15 124 0 157 3 169 15 9 8 24 15 34 15 10 0
20 7 24 15 3 8 16 15 30 15 13 0 26 7 30 15 3 8 15 15 26 15 11 0 37 18 58 39
21 22 50 43 65 46 15 4 27 11 27 16 0 5 7 9 15 9 12 0 15 -17 15 -94 0 -71 -4
-97 -15 -106 -10 -9 -15 -32 -15 -75 0 -43 -5 -66 -15 -75 -11 -9 -15 -33 -15
-90 0 -57 -4 -81 -15 -90 -11 -9 -15 -33 -15 -92 0 -61 -3 -80 -15 -84 -12 -5
-15 -28 -15 -119 0 -91 -3 -114 -15 -119 -12 -4 -15 -32 -15 -159 0 -125 -3
-157 -15 -167 -13 -11 -15 -56 -15 -295 0 -239 2 -284 15 -295 12 -10 15 -48
15 -225 0 -177 -3 -215 -15 -225 -10 -8 -15 -30 -15 -62 0 -34 -4 -50 -15 -54
-11 -5 -15 -21 -15 -60 0 -39 -4 -56 -15 -60 -10 -4 -15 -20 -15 -45 0 -21 -4
-39 -8 -39 -20 0 -52 48 -52 77 0 17 -7 36 -15 43 -8 7 -15 27 -15 45 0 18 -7
38 -15 45 -8 7 -15 27 -15 45 0 18 -7 38 -15 45 -9 8 -15 30 -15 57 0 26 -6
51 -15 59 -9 9 -15 34 -15 60 0 27 -6 52 -15 61 -8 8 -13 19 -9 24 3 5 2 34
-2 65 -6 49 -9 55 -28 52 -22 -3 -36 -45 -18 -57 5 -3 12 -37 15 -76 4 -38 11
-71 17 -73 5 -2 10 -25 10 -52 0 -30 5 -52 15 -60 9 -7 15 -29 15 -51 0 -37
-12 -51 -25 -29 -3 6 -21 10 -39 10 -19 0 -39 7 -46 15 -8 9 -30 15 -60 15
-29 0 -52 6 -60 15 -7 8 -34 15 -63 17 l-52 3 -5 55 c-5 51 -7 55 -30 55 -21
0 -25 -5 -28 -36 -2 -23 2 -40 12 -49 12 -9 16 -31 16 -76 0 -50 3 -64 15 -64
8 0 15 9 15 20 0 11 9 29 21 41 19 19 22 19 38 5 11 -10 36 -16 63 -16 28 0
50 -6 58 -15 7 -8 27 -15 45 -15 18 0 38 -7 45 -15 7 -8 20 -15 30 -15 10 0
23 -7 30 -15 7 -8 20 -15 30 -15 30 0 50 -33 50 -82 0 -28 6 -50 15 -58 8 -7
15 -20 15 -30 0 -10 7 -23 15 -30 8 -7 15 -20 15 -30 0 -10 7 -23 15 -30 9 -8
15 -30 15 -60 0 -30 6 -52 15 -60 8 -7 15 -27 15 -45 0 -18 7 -38 15 -45 9 -8
15 -30 15 -60 0 -30 6 -52 15 -60 11 -9 15 -33 15 -92 0 -61 3 -80 15 -84 12
-5 15 -30 15 -142 0 -114 3 -138 17 -155 17 -18 17 -19 0 -28 -15 -9 -17 -28
-17 -163 0 -124 -3 -156 -15 -166 -8 -7 -15 -26 -15 -43 0 -25 -12 -44 -56
-88 -31 -32 -53 -62 -50 -68 4 -6 23 -11 42 -11 l34 0 0 -319 c0 -304 -5 -357
-28 -315 -18 32 -32 4 -32 -62 0 -48 4 -66 15 -70 10 -4 15 -20 15 -44 0 -24
5 -40 15 -44 8 -3 15 -16 15 -30 0 -13 7 -26 15 -30 31 -11 13 -26 -32 -26
-28 0 -53 -6 -64 -16 -24 -22 -39 -10 -39 30 0 19 -7 39 -15 46 -10 9 -15 32
-15 77 0 64 0 64 -27 61 -23 -2 -29 -9 -31 -34 -2 -19 3 -36 12 -44 23 -18 23
-232 1 -250 -8 -7 -15 -28 -15 -46 0 -19 -4 -34 -10 -34 -5 0 -13 -12 -16 -28
-4 -15 -12 -30 -17 -34 -6 -3 -12 -30 -13 -60 -2 -29 -8 -54 -13 -56 -6 -2
-11 -19 -11 -37 0 -19 -6 -40 -13 -47 -8 -7 -17 -26 -21 -41 -3 -15 -11 -27
-16 -27 -6 0 -10 -9 -10 -19 0 -11 -7 -26 -15 -35 -8 -8 -15 -21 -15 -29 0 -8
-7 -20 -15 -27 -19 -16 -19 -59 0 -66 19 -8 45 13 45 36 0 10 7 23 15 30 8 7
15 20 15 30 0 10 7 23 15 30 8 7 15 21 15 30 0 10 5 20 11 22 9 3 15 21 18 51
1 4 12 7 26 7 28 0 32 14 10 36 -8 9 -15 26 -15 39 0 13 7 30 15 39 8 8 15 28
15 45 0 16 7 36 15 45 8 8 15 28 15 45 0 16 7 36 15 45 8 8 15 21 15 28 0 7
18 32 40 56 39 41 41 42 108 42 57 0 73 -4 95 -23 26 -22 27 -25 27 -144 0
-95 -3 -123 -15 -133 -8 -7 -15 -20 -15 -29 0 -21 -41 -61 -62 -61 -9 0 -21
-7 -28 -15 -7 -8 -28 -15 -46 -15 -38 0 -43 -12 -15 -41 16 -17 19 -18 31 -4
7 8 23 15 36 15 l24 0 0 -129 c0 -105 3 -130 15 -135 11 -4 15 -22 15 -69 0
-45 5 -68 15 -77 11 -9 15 -33 15 -90 0 -57 4 -81 15 -90 14 -12 14 -15 0 -30
-9 -10 -15 -35 -15 -61 0 -37 -5 -50 -30 -74 -28 -27 -30 -33 -30 -106 0 -56
-4 -80 -15 -89 -8 -7 -15 -21 -15 -31 0 -10 -6 -22 -14 -26 -8 -4 -16 -19 -18
-33 -5 -36 -55 -40 -91 -6 -21 20 -27 34 -27 69 0 27 6 49 14 57 8 6 16 21 18
33 3 19 11 23 58 27 l55 5 3 58 c3 57 -5 70 -28 42 -18 -22 -225 -22 -234 0
-4 11 -21 15 -60 15 -39 0 -55 4 -60 15 -3 8 -14 15 -25 15 -12 0 -45 25 -76
56 -31 31 -57 55 -60 53 -2 -2 -5 -59 -6 -127 -2 -106 0 -125 16 -142 10 -11
27 -20 37 -20 10 0 32 -14 48 -30 16 -17 38 -30 49 -30 11 0 29 -14 41 -30 18
-25 28 -30 56 -28 23 1 41 -5 56 -19 16 -15 31 -20 49 -16 20 3 31 -1 45 -20
24 -30 55 -47 88 -47 33 0 83 44 91 80 4 17 10 30 15 30 4 0 10 18 14 41 4 22
13 51 22 64 8 13 14 40 13 63 -3 38 20 99 47 129 7 7 12 60 13 133 1 100 -1
121 -14 126 -11 5 -15 22 -15 75 0 53 -4 71 -15 75 -13 5 -15 34 -15 173 l0
167 30 29 c21 20 30 38 30 61 0 17 6 37 14 44 8 6 16 21 18 33 5 37 23 24 26
-18 2 -22 10 -44 18 -48 8 -4 14 -16 14 -26 0 -10 7 -24 15 -31 8 -7 15 -20
15 -30 0 -10 7 -23 15 -30 22 -18 22 -422 0 -440 -8 -7 -15 -27 -15 -45 0 -18
-7 -38 -15 -45 -23 -19 -20 -115 5 -147 11 -14 20 -36 20 -49 0 -14 4 -32 9
-42 29 -58 41 -98 41 -141 0 -31 5 -53 15 -61 8 -7 15 -28 15 -47 0 -27 9 -44
41 -76 41 -42 41 -42 107 -39 41 1 72 8 82 17 9 8 22 15 29 15 7 0 34 23 61
50 27 28 54 50 62 50 7 0 25 11 40 25 15 14 36 25 46 25 22 0 47 25 57 58 4
13 18 27 31 32 13 5 24 16 24 23 0 8 9 24 20 37 18 20 20 37 20 144 0 104 -3
125 -20 151 -11 17 -20 38 -20 48 0 10 -7 29 -16 42 -8 13 -14 32 -12 43 2 10
-3 26 -10 35 -15 17 -27 70 -24 102 1 11 5 80 8 154 6 123 5 135 -14 160 -18
25 -20 38 -15 153 5 115 4 130 -15 166 -14 28 -20 57 -19 96 1 32 -4 61 -11
68 -14 14 -17 148 -3 148 15 0 34 99 27 145 -3 29 0 56 10 80 8 20 12 45 9 56
-4 11 0 30 9 44 9 13 16 41 16 61 0 21 7 45 16 55 9 10 17 39 18 69 2 29 8 55
13 58 6 4 14 26 18 50 4 23 11 42 16 42 5 0 9 15 9 33 0 18 7 42 15 53 8 10
15 29 15 41 0 12 7 35 15 52 8 17 22 45 30 62 8 17 15 43 15 58 0 15 9 36 21
47 17 15 19 26 14 64 -5 39 -3 49 15 65 20 18 21 26 15 83 -6 58 -5 65 14 78
20 15 21 23 21 225 0 194 -2 213 -20 236 -17 22 -18 35 -13 122 6 94 5 99 -17
114 -20 14 -22 21 -16 65 5 40 3 53 -14 75 -18 22 -19 35 -14 99 5 64 3 80
-15 114 -24 43 -21 109 5 151 20 32 14 213 -7 213 -5 0 -9 -7 -9 -15 0 -9 -7
-18 -15 -21 -12 -5 -15 -28 -15 -120 0 -93 -3 -114 -14 -114 -8 0 -18 5 -21
10 -7 12 -55 14 -55 2 0 -4 20 -28 45 -52 l45 -44 0 -78 c0 -61 3 -80 15 -84
11 -5 15 -23 15 -74 0 -51 4 -69 15 -74 12 -4 15 -27 15 -120 0 -92 3 -115 15
-120 13 -5 15 -44 15 -274 0 -227 -2 -271 -15 -282 -10 -9 -15 -32 -15 -77 0
-47 -4 -65 -15 -69 -11 -5 -15 -21 -15 -60 0 -39 -4 -56 -15 -60 -10 -4 -15
-20 -15 -45 0 -26 -5 -42 -15 -45 -10 -4 -15 -20 -15 -45 0 -26 -5 -42 -15
-45 -10 -4 -15 -20 -15 -45 0 -26 -5 -42 -15 -45 -10 -4 -15 -20 -15 -44 0
-24 -5 -40 -15 -44 -10 -3 -15 -19 -15 -45 0 -25 -5 -41 -15 -45 -11 -4 -15
-21 -15 -60 0 -39 -4 -55 -15 -60 -9 -3 -15 -18 -15 -39 0 -19 -7 -40 -15 -47
-10 -9 -15 -32 -15 -75 0 -43 -5 -66 -15 -75 -12 -10 -15 -37 -15 -121 0 -92
-3 -110 -17 -118 -17 -10 -17 -12 0 -25 14 -11 17 -29 17 -94 0 -62 3 -81 15
-86 11 -4 15 -20 15 -56 0 -44 -4 -55 -30 -79 -27 -24 -29 -29 -15 -41 8 -7
15 -20 15 -30 0 -10 7 -23 15 -30 8 -7 15 -27 15 -45 0 -18 7 -38 15 -45 12
-10 15 -42 15 -167 0 -127 3 -155 15 -159 8 -4 15 -17 15 -30 0 -14 -7 -27
-15 -30 -8 -4 -15 -16 -15 -29 0 -13 7 -25 15 -29 10 -3 15 -19 15 -45 0 -25
5 -41 15 -45 8 -3 15 -16 15 -30 0 -13 7 -26 15 -30 11 -4 15 -20 15 -54 0
-32 -5 -54 -15 -62 -8 -7 -15 -20 -15 -30 0 -10 -7 -23 -15 -30 -8 -7 -15 -20
-15 -29 0 -21 -40 -61 -61 -61 -9 0 -28 -14 -44 -30 -16 -16 -36 -30 -46 -30
-9 0 -22 -7 -29 -15 -18 -22 -177 -21 -201 1 -16 14 -19 14 -39 -6 -15 -15
-20 -31 -18 -58 l3 -37 53 -3 c52 -3 52 -3 52 -36 0 -19 7 -39 15 -46 22 -19
19 -83 -5 -105 -16 -14 -23 -16 -32 -7 -7 7 -19 12 -28 12 -21 0 -60 41 -60
62 0 9 -7 21 -15 28 -11 9 -15 35 -15 104 0 90 -1 93 -30 116 -16 14 -29 35
-30 48 0 12 -7 25 -15 28 -22 9 -22 196 0 214 8 7 15 27 15 45 0 18 7 38 15
45 12 10 15 45 15 196 l0 184 55 0 c39 0 55 4 55 13 0 27 -36 47 -83 47 -52 0
-87 24 -87 60 0 11 -7 23 -15 26 -8 4 -15 17 -15 30 0 14 -7 27 -15 30 -12 5
-15 26 -15 103 0 89 2 99 23 119 21 20 34 22 124 22 l101 0 21 -43 c12 -24 21
-48 21 -54 0 -6 7 -16 15 -23 8 -7 15 -20 15 -30 0 -10 7 -23 15 -30 8 -7 15
-21 15 -32 0 -10 7 -21 15 -24 22 -9 20 -83 -2 -100 -20 -14 -22 -12 32 -29
10 -3 15 -17 15 -40 0 -22 6 -38 15 -41 8 -4 15 -17 15 -30 0 -14 7 -27 15
-30 8 -4 15 -17 15 -30 0 -12 6 -27 14 -31 8 -4 16 -19 18 -33 3 -27 33 -39
52 -20 8 8 7 14 -6 21 -10 6 -18 21 -18 33 0 13 -7 26 -15 30 -10 3 -15 19
-15 45 0 25 -5 41 -15 45 -9 3 -15 18 -15 39 0 19 -7 40 -15 47 -8 7 -15 27
-15 45 0 18 -7 38 -15 45 -8 7 -15 27 -15 45 0 18 -7 38 -15 45 -8 7 -15 20
-15 30 0 10 -7 23 -15 30 -8 7 -15 18 -15 25 0 7 -13 37 -30 68 -26 49 -30 67
-30 136 0 58 4 82 15 91 9 7 15 29 15 51 0 34 -3 39 -24 39 -27 0 -36 -16 -36
-69 0 -20 -5 -42 -12 -49 -6 -6 -13 -29 -14 -49 -1 -21 -2 -44 -3 -50 -1 -9
-22 -13 -71 -13 -70 0 -83 7 -55 30 8 7 15 20 15 30 0 10 7 23 15 30 9 8 15
30 15 60 0 30 6 52 15 60 17 14 20 77 5 100 -9 13 -12 13 -21 -2 -5 -10 -14
-18 -19 -18 -6 0 -10 107 -10 274 0 231 -2 275 -15 286 -9 7 -15 29 -15 51 0
38 1 39 34 39 51 0 53 17 7 64 -22 23 -41 49 -41 58 0 8 -7 21 -15 28 -10 8
-15 30 -15 62 0 34 -4 50 -15 54 -13 5 -15 40 -15 225 0 186 2 221 15 225 12
5 15 26 15 101 0 71 4 98 15 109 10 11 15 36 15 79 0 47 4 64 15 69 11 4 15
21 15 60 0 39 4 55 15 60 12 4 15 23 15 84 0 59 4 83 15 92 8 7 15 27 15 45 0
18 7 38 15 45 8 7 15 27 15 45 0 18 6 38 13 44 8 6 14 25 15 42 0 17 6 37 13
46 7 8 14 22 15 30 4 28 37 53 69 53 18 0 38 7 45 15 9 11 35 15 107 15 87 0
96 -2 117 -25 38 -41 46 -32 46 52 0 57 4 81 16 95 16 16 16 18 0 24 -28 11
-45 -4 -48 -43 l-3 -38 -67 -3 c-43 -2 -71 -8 -78 -17 -8 -9 -30 -15 -58 -15
-29 0 -52 -6 -64 -17 -15 -13 -23 -15 -36 -7 -24 15 -29 115 -7 137 10 11 15
35 15 76 0 40 5 65 15 75 17 17 20 86 4 86 -21 0 -49 -42 -49 -72 0 -16 -7
-36 -15 -44 -11 -11 -15 -37 -15 -90 0 -51 -5 -80 -14 -89 -9 -10 -13 -32 -11
-69 3 -38 -1 -58 -11 -67 -8 -6 -14 -26 -14 -44 0 -18 -7 -38 -15 -45 -8 -7
-15 -27 -15 -45 0 -18 -6 -38 -14 -45 -8 -6 -16 -28 -18 -47 -3 -38 -28 -60
-28 -25 0 11 -7 25 -15 32 -8 7 -15 27 -15 45 0 18 -7 38 -15 45 -8 7 -15 27
-15 45 0 18 -7 38 -15 45 -12 10 -15 45 -15 195 0 150 3 185 15 195 13 11 15
90 15 605 0 515 -2 594 -15 605 -12 10 -15 47 -15 210 0 163 -3 200 -15 210
-12 10 -15 47 -15 211 0 110 3 199 8 199 4 0 45 -38 92 -85 47 -47 92 -85 101
-85 9 0 22 -7 29 -15 7 -8 20 -15 30 -15 10 0 23 -7 30 -15 8 -9 30 -15 60
-15 30 0 52 -6 60 -15 10 -12 37 -15 125 -15 91 0 114 3 119 15 3 9 18 15 39
15 19 0 40 7 47 15 7 8 20 15 30 15 10 0 23 7 30 15 7 8 20 15 29 15 10 0 30
14 46 30 16 17 36 30 45 30 24 0 62 44 54 63 -8 23 -16 21 -44 -8 -13 -14 -31
-25 -40 -25 -9 0 -29 -13 -45 -30 -16 -16 -36 -30 -46 -30 -9 0 -22 -7 -29
-15 -7 -8 -28 -15 -47 -15 -21 0 -36 -6 -39 -15 -5 -12 -33 -15 -164 -15 -128
0 -160 3 -170 15 -7 8 -27 15 -45 15 -18 0 -38 7 -45 15 -7 8 -20 15 -29 15
-21 0 -171 150 -171 171 0 9 -7 22 -15 29 -13 11 -15 60 -15 330 0 281 -2 319
-16 324 -9 3 -16 6 -17 5 -1 0 -8 -3 -14 -6z m-13 -1287 c0 -44 5 -67 15 -76
13 -10 15 -52 15 -255 0 -186 3 -244 13 -248 10 -3 10 -9 0 -26 -10 -16 -13
-127 -13 -465 0 -382 -2 -445 -15 -456 -12 -10 -15 -40 -15 -150 0 -110 3
-140 15 -150 10 -8 15 -30 15 -62 0 -34 4 -50 15 -54 10 -4 15 -20 15 -44 0
-21 7 -43 15 -50 8 -7 15 -26 15 -42 0 -16 7 -36 15 -44 11 -12 15 -39 15
-105 0 -70 -3 -91 -15 -95 -11 -5 -15 -21 -15 -60 0 -39 -4 -56 -15 -60 -12
-5 -15 -25 -15 -90 0 -66 -3 -86 -15 -90 -12 -5 -15 -26 -15 -104 0 -78 -3
-99 -15 -104 -13 -4 -15 -34 -15 -180 0 -145 2 -175 15 -180 12 -4 15 -23 15
-84 0 -59 4 -83 15 -92 12 -10 15 -37 15 -120 0 -83 3 -110 15 -120 23 -19 23
-665 0 -674 -11 -4 -15 -21 -15 -60 0 -39 -4 -55 -15 -60 -10 -3 -15 -19 -15
-45 0 -25 -5 -41 -15 -45 -9 -3 -15 -18 -15 -40 0 -44 -13 -53 -40 -26 -16 16
-20 33 -20 84 0 48 -4 65 -15 70 -8 3 -15 16 -15 30 0 13 -7 26 -15 30 -11 4
-15 21 -15 60 0 39 -4 55 -15 60 -13 5 -15 61 -15 424 0 361 2 421 15 432 8 7
15 27 15 45 0 18 7 38 15 45 23 19 23 615 0 624 -12 4 -15 23 -15 84 0 59 -4
83 -15 92 -9 8 -15 30 -15 60 0 30 -6 52 -15 60 -8 7 -15 27 -15 45 0 18 -7
38 -15 45 -11 9 -15 33 -15 92 0 61 3 80 15 84 11 4 15 21 15 59 0 38 4 55 15
59 11 4 15 21 15 60 0 39 4 55 15 60 11 4 15 20 15 54 0 32 5 54 15 62 12 10
15 43 15 180 0 137 -3 170 -15 180 -13 11 -15 68 -15 400 0 332 2 389 15 400
12 10 15 40 15 152 0 114 3 140 15 144 12 5 15 25 15 89 0 64 3 84 15 89 12 4
15 23 15 84 0 43 3 82 6 85 16 15 24 -9 24 -67z m-182 -4238 c-3 -47 -21 -55
-26 -12 -4 31 4 54 18 54 7 0 10 -17 8 -42z m32 -103 c0 -16 -6 -25 -15 -25
-15 0 -21 31 -8 43 13 14 23 6 23 -18z m30 -75 c0 -5 -7 -10 -15 -10 -8 0 -15
5 -15 10 0 6 7 10 15 10 8 0 15 -4 15 -10z m828 -1266 c-3 -45 -5 -49 -28 -49
-30 0 -40 35 -15 55 8 7 15 20 15 30 0 9 3 20 7 24 14 14 24 -13 21 -60z
m-1426 21 c0 -5 -5 -11 -11 -13 -6 -2 -11 4 -11 13 0 9 5 15 11 13 6 -2 11 -8
11 -13z m38 -105 c0 -28 -13 -31 -37 -8 -23 21 -30 48 -16 61 10 10 53 -33 53
-53z m110 15 c0 -8 -4 -15 -10 -15 -5 0 -10 7 -10 15 0 8 5 15 10 15 6 0 10
-7 10 -15z m90 -31 c0 -8 -4 -12 -10 -9 -5 3 -10 10 -10 16 0 5 5 9 10 9 6 0
10 -7 10 -16z m1095 -14 c0 -18 -6 -26 -23 -28 -24 -4 -38 18 -28 44 3 9 15
14 28 12 17 -2 23 -10 23 -28z m-1210 -10 c3 -6 3 -19 0 -31 -10 -31 -49 -21
-53 14 -3 23 0 27 22 27 14 0 28 -5 31 -10z m233 -2 c-7 -20 -48 -23 -48 -4 0
11 9 16 26 16 16 0 24 -5 22 -12z m-142 -45 c8 -32 -6 -58 -32 -58 -26 0 -30
38 -7 64 23 28 31 26 39 -6z m912 15 c-7 -20 -48 -23 -48 -4 0 11 9 16 26 16
16 0 24 -5 22 -12z m122 -26 c0 -50 -8 -56 -36 -29 -37 35 -31 67 13 67 20 0
23 -5 23 -38z m-938 -9 c11 -10 18 -30 18 -55 0 -50 -22 -60 -58 -25 -26 26
-26 26 -6 48 10 11 18 23 17 25 -6 8 -3 24 4 24 3 0 15 -7 25 -17z m848 -53
c0 -44 -19 -61 -45 -40 -15 13 -21 61 -8 73 3 4 17 7 30 7 20 0 23 -5 23 -40z"/>
<path d="M5109 7858 c-8 -27 -5 -50 12 -82 16 -31 19 -56 18 -131 -1 -72 2
-98 16 -118 12 -19 16 -40 13 -69 -4 -33 0 -48 15 -65 14 -16 19 -34 18 -60
-6 -70 -3 -84 18 -102 11 -10 18 -21 14 -25 -3 -3 -1 -6 5 -6 19 0 16 115 -3
130 -10 9 -15 31 -15 72 0 39 -5 64 -15 74 -10 11 -15 36 -15 79 0 47 -4 64
-15 69 -8 3 -15 14 -15 24 0 11 7 25 15 32 8 7 15 23 15 35 0 13 -7 25 -15 29
-9 3 -15 19 -15 41 0 19 -8 44 -17 55 -15 17 -31 26 -34 18z"/>
<path d="M1988 7772 c-16 -33 -18 -74 -19 -345 0 -265 2 -312 15 -332 9 -13
16 -32 16 -40 0 -9 5 -15 11 -13 14 5 19 768 4 768 -5 0 -18 -17 -27 -38z"/>
<path d="M463 7570 c-43 -44 -81 -88 -86 -98 -5 -9 -36 -43 -69 -74 -46 -44
-60 -64 -60 -85 0 -16 -8 -37 -18 -48 -12 -14 -20 -44 -25 -95 -7 -73 -6 -76
17 -87 12 -6 40 -14 61 -17 37 -5 42 -2 108 65 53 53 69 76 69 98 0 28 34 70
47 57 11 -10 5 -128 -7 -140 -5 -5 -10 -30 -10 -55 l0 -46 25 27 c19 20 25 38
25 71 0 27 6 49 15 57 18 15 21 110 3 128 -9 9 -9 15 0 24 14 14 16 58 3 58
-13 0 -51 -50 -51 -66 0 -8 -8 -14 -19 -14 -10 0 -24 -6 -31 -14 -6 -8 -21
-16 -33 -18 -19 -3 -22 -10 -25 -53 -3 -42 -9 -56 -40 -87 -20 -21 -45 -38
-55 -38 -11 0 -26 -8 -33 -17 -7 -10 -16 -14 -21 -10 -4 5 0 14 9 21 13 9 18
31 20 81 3 64 5 70 28 75 31 7 38 37 13 55 -17 13 -15 17 30 62 26 27 47 56
47 64 0 9 38 52 85 97 47 45 85 86 85 92 0 27 -37 3 -107 -70z"/>
<path d="M1247 7427 c-18 -28 -26 -99 -12 -104 16 -5 45 55 45 93 0 40 -11 43
-33 11z"/>
<path d="M5907 7403 c-14 -13 -7 -120 8 -133 10 -9 15 -31 15 -73 0 -43 5 -66
17 -79 12 -13 16 -32 14 -59 -2 -27 3 -47 14 -59 30 -33 16 -55 -39 -58 -46
-3 -51 -1 -87 38 -30 32 -39 50 -39 76 0 29 -3 34 -24 34 -13 0 -26 -7 -30
-15 -6 -18 2 -45 15 -45 5 0 9 -22 9 -49 0 -31 6 -55 15 -65 19 -19 19 -22 -5
-46 -12 -12 -33 -20 -55 -20 -31 0 -35 3 -35 25 0 14 -7 28 -15 31 -8 4 -15
17 -15 30 0 14 -7 27 -15 30 -8 4 -15 16 -15 28 0 21 -31 56 -50 56 -17 0 -12
-77 6 -84 11 -4 14 -18 12 -58 -3 -52 -4 -53 -37 -56 -44 -4 -81 29 -81 74 0
17 -6 37 -14 44 -8 6 -16 21 -18 33 -2 16 -10 22 -28 22 -24 0 -25 -3 -30 -70
-5 -67 -6 -70 -30 -70 -18 0 -26 6 -28 22 -2 12 -10 27 -18 33 -8 7 -14 27
-14 45 0 18 -7 38 -15 45 -9 8 -15 30 -15 59 -1 31 -7 54 -21 70 -11 13 -22
22 -24 19 -10 -9 -8 -110 2 -117 24 -16 53 -95 53 -144 1 -30 7 -60 15 -71 9
-12 15 -42 15 -74 0 -34 5 -59 15 -68 8 -9 15 -33 15 -54 0 -43 26 -70 67 -70
35 0 43 30 43 155 0 89 3 116 13 113 7 -3 13 -26 15 -55 2 -29 9 -57 17 -63
10 -8 15 -31 15 -64 0 -30 6 -60 15 -72 8 -10 15 -33 15 -51 0 -59 74 -93 119
-55 17 14 22 33 27 100 8 101 32 112 32 14 1 -17 8 -39 16 -48 9 -8 16 -25 16
-37 0 -52 64 -90 119 -72 20 6 21 13 21 129 0 98 -3 126 -15 136 -8 7 -15 26
-15 42 0 16 6 31 15 34 9 4 15 20 15 43 0 37 34 81 61 81 18 -1 53 -30 62 -52
12 -32 24 -19 23 27 -1 24 -7 50 -13 57 -7 6 -13 33 -13 59 0 32 -5 49 -15 53
-11 4 -15 21 -15 66 0 44 -5 68 -19 88 -11 15 -21 47 -23 72 -3 45 -3 45 29
45 41 0 65 21 37 32 -10 4 -25 13 -32 20 -8 7 -17 11 -22 8 -4 -3 -13 2 -20
10 -14 16 -23 19 -33 8z m-37 -553 c0 -16 -5 -30 -10 -30 -14 0 -24 26 -16 45
10 26 26 16 26 -15z m-462 -23 c23 -24 20 -37 -8 -37 -20 0 -63 43 -53 53 13
14 40 7 61 -16z m254 8 c0 -5 -5 -11 -11 -13 -6 -2 -11 4 -11 13 0 9 5 15 11
13 6 -2 11 -8 11 -13z m161 -35 c24 -28 22 -79 -5 -107 -27 -29 -36 -29 -65
-1 -16 15 -23 33 -23 60 0 33 3 38 24 38 13 0 26 7 30 15 7 20 18 19 39 -5z
m-203 -35 c32 -34 18 -60 -31 -60 -33 0 -34 1 -37 43 -3 38 -1 42 21 42 13 0
34 -11 47 -25z m78 -15 c4 -42 -6 -83 -18 -75 -15 10 -13 118 3 113 6 -3 13
-19 15 -38z m-285 -15 c16 -22 16 -26 3 -31 -26 -10 -46 4 -46 31 0 32 20 32
43 0z m224 -111 c8 -21 -19 -46 -40 -38 -9 3 -17 17 -17 30 0 19 5 24 25 24
14 0 28 -7 32 -16z m233 -24 c0 -22 -3 -40 -7 -41 -5 0 -19 -2 -32 -5 -31 -6
-51 12 -51 46 0 35 6 40 52 40 38 0 38 0 38 -40z m-240 -60 c0 -5 -4 -10 -10
-10 -5 0 -10 5 -10 10 0 6 5 10 10 10 6 0 10 -4 10 -10z m225 -50 c-23 -26
-45 -26 -45 0 0 12 9 24 23 29 31 13 45 -4 22 -29z"/>
<path d="M4420 7316 c0 -9 -7 -19 -15 -22 -12 -5 -15 -31 -15 -149 0 -118 -3
-144 -15 -149 -12 -4 -15 -25 -15 -99 0 -72 -4 -98 -15 -107 -10 -9 -15 -32
-15 -75 0 -43 -5 -66 -15 -75 -9 -8 -15 -30 -15 -60 0 -30 -6 -52 -15 -60 -10
-9 -15 -32 -15 -75 0 -41 -5 -67 -14 -74 -8 -7 -13 -34 -14 -73 -1 -33 -6 -64
-12 -68 -6 -4 -13 -31 -14 -61 -2 -29 -9 -55 -15 -57 -7 -2 -11 -29 -11 -67 0
-43 -5 -68 -15 -79 -9 -8 -15 -33 -15 -59 0 -27 -6 -49 -15 -57 -9 -8 -15 -30
-15 -60 0 -30 -6 -52 -15 -60 -8 -7 -15 -27 -15 -45 0 -18 -7 -38 -15 -45 -10
-9 -15 -32 -15 -75 0 -43 -5 -66 -15 -75 -11 -9 -15 -33 -15 -86 0 -41 3 -74
8 -74 4 1 18 18 31 38 20 32 23 45 18 98 -5 53 -3 64 13 79 11 10 20 30 20 45
0 15 6 40 14 55 8 16 12 47 10 77 -2 39 1 54 13 64 13 9 16 24 14 61 -2 38 1
52 13 56 12 5 16 21 16 62 0 40 4 57 15 61 11 4 15 21 15 59 0 34 5 57 15 65
9 7 15 30 15 54 0 22 7 50 15 60 9 12 15 42 15 77 0 38 5 61 15 69 10 9 15 32
15 75 0 44 5 66 15 75 11 9 15 29 14 66 -1 32 3 60 11 69 7 9 15 45 16 81 2
41 9 70 19 80 11 12 15 38 15 106 0 73 4 95 17 111 15 16 18 36 16 116 -1 53
-4 105 -6 115 -5 25 -27 34 -27 12z"/>
<path d="M1218 7275 c-11 -14 -18 -42 -18 -68 0 -27 -6 -49 -15 -57 -10 -8
-15 -31 -15 -71 0 -37 -5 -63 -15 -72 -9 -9 -15 -40 -17 -83 l-3 -69 -40 0
-40 0 -3 90 c-3 117 -6 124 -37 95 -20 -19 -25 -33 -25 -71 0 -31 -5 -51 -14
-56 -8 -4 -16 -26 -18 -48 l-3 -40 -55 0 -55 0 -3 36 c-2 23 2 40 12 49 9 7
16 27 16 45 0 18 7 38 15 45 14 12 13 16 -6 37 l-23 23 -23 -22 c-18 -16 -23
-32 -23 -69 0 -28 -6 -51 -14 -59 -8 -6 -16 -28 -18 -48 l-3 -37 -55 0 -55 0
-3 68 c-2 53 0 68 13 73 10 4 15 20 15 50 0 24 -3 44 -7 44 -13 0 -53 -53 -53
-70 0 -10 -7 -20 -15 -24 -9 -3 -15 -19 -15 -41 0 -46 -29 -75 -75 -75 -31 0
-35 3 -36 28 -2 39 2 56 13 63 12 7 15 85 5 95 -4 4 -10 -2 -14 -12 -3 -10
-12 -23 -20 -27 -7 -4 -13 -23 -13 -41 0 -19 -7 -39 -16 -47 -11 -9 -15 -29
-13 -77 2 -51 -1 -67 -14 -77 -12 -9 -17 -27 -17 -65 0 -30 -7 -63 -17 -80
-15 -27 -15 -29 5 -55 12 -15 22 -34 22 -41 0 -7 12 -21 26 -30 24 -16 27 -16
52 3 15 11 29 31 30 44 2 13 8 28 13 34 5 5 9 19 9 31 0 13 6 29 14 37 8 8 16
31 18 52 2 21 9 40 16 43 17 5 16 -77 -1 -84 -10 -3 -14 -32 -14 -105 -1 -92
0 -101 24 -129 13 -17 30 -30 37 -30 15 0 86 72 86 88 0 18 34 14 59 -7 17
-15 29 -17 57 -11 42 10 67 29 60 46 -3 8 2 21 11 30 9 9 17 34 18 59 0 26 8
52 18 63 9 10 17 33 17 51 0 22 4 31 13 28 8 -3 12 -31 12 -95 0 -53 5 -95 11
-102 6 -6 31 -10 55 -8 41 3 44 5 50 38 3 19 13 48 22 65 9 16 14 39 11 51 -3
12 3 38 15 59 16 31 19 49 14 99 -4 52 -2 64 15 84 15 17 19 32 15 57 -4 25 0
41 16 60 17 23 20 36 14 85 -4 45 -2 63 11 81 16 23 23 99 9 99 -5 0 -16 -11
-25 -25z m-667 -476 c18 -18 19 -22 6 -37 -8 -9 -17 -26 -19 -37 -2 -15 -11
-20 -38 -20 -34 0 -35 1 -41 50 -3 28 -4 53 -2 58 9 16 73 7 94 -14z m538 -3
c29 -30 21 -69 -12 -64 -18 2 -23 11 -25 46 -4 48 5 52 37 18z m-180 -30 c16
-17 22 -33 19 -57 -3 -31 -7 -34 -37 -37 -71 -7 -106 24 -66 58 8 7 15 20 15
30 0 37 36 41 69 6z m-159 -43 c0 -63 -70 -109 -108 -71 -13 13 -17 90 -5 101
3 4 30 7 60 7 l53 0 0 -37z m-255 -73 c23 -26 9 -43 -31 -38 -23 2 -30 9 -32
31 -3 23 0 27 21 27 13 0 32 -9 42 -20z m575 4 c0 -10 -7 -14 -22 -12 -32 5
-35 28 -4 28 17 0 26 -5 26 -16z m-190 -34 c28 -28 25 -53 -10 -80 -18 -14
-30 -32 -30 -46 0 -15 -6 -24 -15 -24 -9 0 -15 9 -15 25 0 16 6 25 15 25 8 0
15 7 15 15 0 9 -7 18 -15 21 -10 4 -15 20 -15 45 0 35 3 39 25 39 14 0 34 -9
45 -20z m-177 -31 l22 -20 -26 -23 c-31 -27 -77 -28 -93 -3 -8 12 -5 22 14 42
29 30 54 32 83 4z m-248 -34 c0 -10 -6 -20 -12 -22 -8 -3 -13 5 -13 22 0 17 5
25 13 23 6 -3 12 -13 12 -23z m203 -102 c2 -8 -6 -13 -22 -13 -28 0 -43 15
-24 23 20 8 41 3 46 -10z"/>
<path d="M2000 6899 c0 -115 1 -123 25 -151 14 -16 25 -26 26 -21 0 4 0 66 -1
137 -1 95 -5 132 -15 142 -30 30 -35 15 -35 -107z"/>
<path d="M6018 6798 c-3 -30 -6 -33 -41 -36 -26 -2 -39 1 -43 12 -3 9 -12 16
-20 16 -20 0 -19 -79 1 -86 9 -4 15 -19 15 -39 0 -19 8 -39 20 -50 11 -10 20
-22 20 -27 0 -21 45 -68 66 -68 23 0 51 26 41 37 -4 3 -2 12 3 18 7 9 7 27 -2
59 -13 50 -23 58 -31 26 -4 -14 -13 -20 -34 -20 -42 0 -55 13 -51 51 3 32 5
34 44 37 36 3 42 0 49 -20 6 -20 8 -17 16 20 7 37 5 48 -13 73 -28 37 -36 37
-40 -3z m32 -197 c0 -17 -34 -22 -49 -6 -14 13 -12 15 17 15 18 0 32 -4 32 -9z"/>
<path d="M2030 6572 c0 -103 2 -121 18 -136 16 -14 18 -27 14 -92 -4 -64 -2
-78 12 -86 9 -5 16 -16 16 -23 0 -8 5 -15 10 -15 17 0 12 146 -5 160 -12 10
-15 38 -15 132 0 114 -1 122 -25 150 l-25 30 0 -120z"/>
<path d="M2090 6155 c0 -44 5 -59 25 -81 l25 -27 0 56 c0 46 -4 60 -25 81
l-25 25 0 -54z"/>
<path d="M2127 6013 c-4 -3 -7 -28 -7 -55 0 -34 5 -50 15 -54 12 -5 15 -24 15
-87 0 -58 4 -85 15 -97 13 -14 14 -28 6 -76 -9 -62 -1 -101 23 -110 12 -5 13
-38 9 -205 -6 -186 -5 -200 13 -220 10 -12 20 -37 21 -58 1 -20 3 -51 4 -70 2
-25 -4 -38 -21 -51 -23 -17 -23 -18 -15 -174 7 -154 6 -158 -15 -181 -20 -21
-22 -30 -16 -79 4 -31 12 -56 17 -56 5 0 9 6 9 14 0 7 7 19 15 26 11 9 15 33
15 91 0 61 3 80 16 87 14 8 14 12 3 32 -11 18 -11 24 -1 27 9 3 12 42 12 146
0 136 1 143 23 157 12 8 31 17 41 20 38 11 28 29 -16 32 l-43 3 -3 186 c-2
150 -5 189 -17 199 -11 9 -15 36 -15 105 0 70 -4 96 -15 105 -10 9 -15 31 -15
73 0 43 -5 66 -17 79 -14 16 -17 34 -14 92 2 61 0 74 -14 80 -9 3 -13 10 -10
16 7 11 -8 14 -18 3z"/>
<path d="M2180 4416 c0 -8 -7 -16 -15 -20 -13 -4 -15 -38 -15 -219 0 -179 3
-217 15 -227 8 -7 15 -19 15 -26 0 -8 5 -14 10 -14 6 0 10 93 10 260 0 167 -4
260 -10 260 -5 0 -10 -6 -10 -14z"/>
<path d="M2175 3844 c-5 -46 -4 -59 11 -75 13 -14 18 -34 16 -65 -1 -34 3 -47
18 -56 13 -9 17 -19 13 -38 -3 -17 1 -31 11 -39 9 -8 16 -26 16 -40 0 -15 7
-36 15 -47 8 -10 15 -30 15 -44 0 -14 6 -34 14 -45 7 -11 17 -36 21 -55 4 -19
11 -39 15 -45 4 -5 11 -26 15 -45 4 -19 14 -44 22 -56 8 -13 11 -32 8 -47 -4
-15 1 -38 14 -62 12 -23 18 -48 15 -64 -4 -19 0 -32 15 -45 18 -16 20 -26 15
-72 -6 -45 -3 -57 15 -81 18 -22 21 -36 17 -68 -4 -26 -1 -50 9 -69 8 -15 15
-41 15 -56 0 -16 8 -36 18 -46 13 -14 17 -34 17 -92 0 -51 4 -77 13 -79 17 -6
15 -51 -3 -69 -18 -19 -21 -178 -4 -221 15 -37 20 -126 8 -134 -6 -3 -12 -27
-13 -52 -2 -25 -11 -56 -20 -68 -16 -24 -21 -85 -10 -126 7 -25 24 -31 24 -9
0 8 7 16 15 20 11 4 15 22 15 75 0 52 4 70 15 75 11 4 15 20 15 54 0 32 5 54
15 62 8 7 15 29 15 50 0 24 5 40 15 44 16 6 21 41 6 50 -5 3 -14 -1 -21 -9 -7
-8 -16 -15 -21 -15 -5 0 -9 83 -9 185 0 161 -2 185 -17 193 -13 8 -16 23 -14
74 2 48 -2 68 -13 77 -11 9 -16 30 -16 61 0 30 -6 52 -15 60 -9 8 -15 30 -15
60 0 30 -6 52 -15 60 -10 9 -15 32 -15 77 0 47 -4 65 -15 69 -11 5 -15 21 -15
60 0 39 -4 56 -15 60 -10 4 -15 20 -15 44 0 24 -5 40 -15 44 -10 3 -15 19 -15
45 0 25 -5 41 -15 45 -10 3 -15 19 -15 45 0 25 -5 41 -15 45 -10 3 -15 19 -15
45 0 25 -5 41 -15 45 -8 3 -15 14 -15 24 0 11 -7 25 -15 32 -10 9 -15 32 -15
75 0 43 -5 66 -15 75 -9 8 -15 30 -15 60 0 30 -6 52 -15 60 -8 7 -15 19 -15
26 0 8 -4 14 -9 14 -5 0 -12 -25 -16 -56z"/>
<path d="M2498 1640 c-23 -28 -27 -42 -26 -88 1 -35 -3 -57 -10 -60 -17 -5
-16 -72 1 -72 22 0 37 23 37 56 0 17 7 37 15 44 8 7 15 21 15 32 0 10 7 21 15
25 14 5 14 7 1 22 -8 9 -16 29 -18 45 l-3 29 -27 -33z"/>
<path d="M3427 1423 c-4 -3 -7 -17 -7 -30 0 -18 6 -23 24 -23 13 0 26 -7 30
-15 3 -9 18 -15 37 -15 18 0 41 -8 52 -17 18 -17 19 -17 32 0 6 9 21 17 33 17
11 0 22 7 26 15 3 8 17 15 31 15 23 0 26 4 23 27 -4 40 -34 42 -69 4 -31 -35
-87 -43 -109 -16 -7 8 -20 15 -30 15 -10 0 -23 7 -30 15 -13 16 -32 19 -43 8z"/>
<path d="M2870 1371 c-27 -33 -60 -40 -80 -16 -7 8 -21 15 -31 15 -10 0 -21 5
-24 10 -9 14 -22 12 -28 -4 -3 -8 3 -26 14 -40 18 -23 27 -26 89 -26 51 0 69
4 74 15 3 8 16 15 30 15 13 0 26 7 30 15 3 8 17 15 32 15 48 0 20 25 -32 28
-44 3 -52 0 -74 -27z"/>
</g>
</svg>
